<svg width="75" height="67" viewBox="0 0 75 67" fill="none" xmlns="http://www.w3.org/2000/svg">
<path opacity="0.25" d="M75 62.7038C75 65.0738 58.3276 67 37.7618 67C17.196 67 0.513275 65.0649 0.513275 62.7038C0.513275 60.3338 17.1857 58.4165 37.7618 58.4165C58.3276 58.4076 75 60.3338 75 62.7038Z" fill="url(#paint0_radial_9_3)"/>
<path opacity="0.8" d="M3.83133 30.0562C3.26634 29.5503 3.30743 28.7514 3.92378 28.2277L38.1213 1.0569C38.7274 0.568694 39.6725 0.62195 40.2272 1.15454L71.6922 30.7042C72.2367 31.2013 72.1853 32.0268 71.5895 32.5061L37.3817 59.7036C36.8064 60.1918 35.8408 60.174 35.2861 59.6326L3.83133 30.0562Z" fill="url(#paint1_linear_9_3)"/>
<path opacity="0.8" d="M8.57728 30.8729C8.09447 30.4468 8.13556 29.7544 8.64919 29.3195L37.6693 6.26737C38.1932 5.85017 38.9842 5.89455 39.467 6.3295L66.1758 31.4143C66.6278 31.8315 66.5765 32.5328 66.0731 32.95L37.0427 56.0198C36.5496 56.437 35.7381 56.4104 35.2655 55.9577L8.57728 30.8729Z" fill="url(#paint2_linear_9_3)"/>
<path opacity="0.8" d="M28.7424 56.4459C28.085 56.7566 27.2837 56.5436 26.9344 55.9843L7.58083 23.9492C7.23156 23.39 7.49865 22.6799 8.14583 22.3959L45.1992 5.66377C45.8566 5.35309 46.6579 5.56613 47.0071 6.1431L66.3607 38.1604C66.71 38.7196 66.4532 39.4386 65.7855 39.7316L28.7424 56.4459Z" fill="url(#paint3_linear_9_3)"/>
<path opacity="0.8" d="M37.6488 52.6645C37.2173 53.0374 36.5291 53.0285 36.0976 52.6645L12.2549 31.5564C11.8132 31.1924 11.8132 30.5888 12.2754 30.2338L36.6523 9.63154C37.0838 9.24985 37.7823 9.24985 38.2035 9.63154L62.0565 30.7131C62.4777 31.0948 62.4777 31.6718 62.0462 32.0446L37.6488 52.6645Z" fill="url(#paint4_linear_9_3)"/>
<path d="M38.0289 53.8362C37.5563 54.2268 36.8475 54.2002 36.4058 53.7919L11.2995 31.6007C10.8475 31.2013 10.8475 30.5799 11.2995 30.2071L37.0016 8.49535C37.4331 8.12254 38.1521 8.12254 38.6144 8.50423L63.731 30.722C64.1521 31.1125 64.1521 31.7428 63.7104 32.1156L38.0289 53.8362Z" fill="url(#paint5_radial_9_3)"/>
<path d="M25.3622 30H24.9929L26.0611 27.0909H26.4247L27.4929 30H27.1236L26.2543 27.5511H26.2315L25.3622 30ZM25.4986 28.8636H26.9872V29.1761H25.4986V28.8636ZM27.9006 30.8182V27.8182H28.2244V28.1648H28.2642C28.2888 28.1269 28.3229 28.0786 28.3665 28.0199C28.411 27.9602 28.4744 27.9072 28.5568 27.8608C28.6402 27.8134 28.7528 27.7898 28.8949 27.7898C29.0786 27.7898 29.2405 27.8357 29.3807 27.9276C29.5208 28.0194 29.6302 28.1496 29.7088 28.3182C29.7874 28.4867 29.8267 28.6856 29.8267 28.9148C29.8267 29.1458 29.7874 29.3461 29.7088 29.5156C29.6302 29.6842 29.5213 29.8149 29.3821 29.9077C29.2429 29.9995 29.0824 30.0455 28.9006 30.0455C28.7604 30.0455 28.6482 30.0222 28.5639 29.9758C28.4796 29.9285 28.4148 29.875 28.3693 29.8153C28.3239 29.7547 28.2888 29.7045 28.2642 29.6648H28.2358V30.8182H27.9006ZM28.2301 28.9091C28.2301 29.0739 28.2543 29.2192 28.3026 29.3452C28.3509 29.4702 28.4214 29.5682 28.5142 29.6392C28.607 29.7093 28.7206 29.7443 28.8551 29.7443C28.9953 29.7443 29.1122 29.7074 29.206 29.6335C29.3007 29.5587 29.3717 29.4583 29.419 29.3324C29.4673 29.2055 29.4915 29.0644 29.4915 28.9091C29.4915 28.7557 29.4678 28.6174 29.4205 28.4943C29.3741 28.3703 29.3035 28.2722 29.2088 28.2003C29.1151 28.1274 28.9972 28.0909 28.8551 28.0909C28.7188 28.0909 28.6042 28.1255 28.5114 28.1946C28.4186 28.2628 28.3485 28.3584 28.3011 28.4815C28.2538 28.6037 28.2301 28.7462 28.2301 28.9091ZM30.3381 30.8182V27.8182H30.6619V28.1648H30.7017C30.7263 28.1269 30.7604 28.0786 30.804 28.0199C30.8485 27.9602 30.9119 27.9072 30.9943 27.8608C31.0777 27.8134 31.1903 27.7898 31.3324 27.7898C31.5161 27.7898 31.678 27.8357 31.8182 27.9276C31.9583 28.0194 32.0677 28.1496 32.1463 28.3182C32.2249 28.4867 32.2642 28.6856 32.2642 28.9148C32.2642 29.1458 32.2249 29.3461 32.1463 29.5156C32.0677 29.6842 31.9588 29.8149 31.8196 29.9077C31.6804 29.9995 31.5199 30.0455 31.3381 30.0455C31.1979 30.0455 31.0857 30.0222 31.0014 29.9758C30.9171 29.9285 30.8523 29.875 30.8068 29.8153C30.7614 29.7547 30.7263 29.7045 30.7017 29.6648H30.6733V30.8182H30.3381ZM30.6676 28.9091C30.6676 29.0739 30.6918 29.2192 30.7401 29.3452C30.7884 29.4702 30.8589 29.5682 30.9517 29.6392C31.0445 29.7093 31.1581 29.7443 31.2926 29.7443C31.4328 29.7443 31.5497 29.7074 31.6435 29.6335C31.7382 29.5587 31.8092 29.4583 31.8565 29.3324C31.9048 29.2055 31.929 29.0644 31.929 28.9091C31.929 28.7557 31.9053 28.6174 31.858 28.4943C31.8116 28.3703 31.741 28.2722 31.6463 28.2003C31.5526 28.1274 31.4347 28.0909 31.2926 28.0909C31.1563 28.0909 31.0417 28.1255 30.9489 28.1946C30.8561 28.2628 30.786 28.3584 30.7386 28.4815C30.6913 28.6037 30.6676 28.7462 30.6676 28.9091ZM33.1108 27.0909V30H32.7756V27.0909H33.1108ZM33.7248 30V27.8182H34.06V30H33.7248ZM33.8952 27.4545C33.8299 27.4545 33.7736 27.4323 33.7262 27.3878C33.6798 27.3433 33.6566 27.2898 33.6566 27.2273C33.6566 27.1648 33.6798 27.1113 33.7262 27.0668C33.7736 27.0222 33.8299 27 33.8952 27C33.9606 27 34.0165 27.0222 34.0629 27.0668C34.1102 27.1113 34.1339 27.1648 34.1339 27.2273C34.1339 27.2898 34.1102 27.3433 34.0629 27.3878C34.0165 27.4323 33.9606 27.4545 33.8952 27.4545ZM35.5604 30.0455C35.3558 30.0455 35.1797 29.9972 35.032 29.9006C34.8842 29.804 34.7706 29.6709 34.6911 29.5014C34.6115 29.3319 34.5717 29.1383 34.5717 28.9205C34.5717 28.6989 34.6125 28.5033 34.6939 28.3338C34.7763 28.1633 34.8909 28.0303 35.0376 27.9347C35.1854 27.8381 35.3577 27.7898 35.5547 27.7898C35.7081 27.7898 35.8464 27.8182 35.9695 27.875C36.0926 27.9318 36.1934 28.0114 36.272 28.1136C36.3506 28.2159 36.3994 28.3352 36.4183 28.4716H36.0831C36.0575 28.3722 36.0007 28.2841 35.9126 28.2074C35.8255 28.1297 35.7081 28.0909 35.5604 28.0909C35.4297 28.0909 35.3151 28.125 35.2166 28.1932C35.1191 28.2604 35.0429 28.3556 34.9879 28.4787C34.9339 28.6008 34.907 28.7443 34.907 28.9091C34.907 29.0776 34.9335 29.2244 34.9865 29.3494C35.0405 29.4744 35.1162 29.5715 35.2138 29.6406C35.3123 29.7097 35.4278 29.7443 35.5604 29.7443C35.6475 29.7443 35.7266 29.7292 35.7976 29.6989C35.8686 29.6686 35.9287 29.625 35.978 29.5682C36.0272 29.5114 36.0623 29.4432 36.0831 29.3636H36.4183C36.3994 29.4924 36.3525 29.6084 36.2777 29.7116C36.2038 29.8139 36.1058 29.8954 35.9837 29.956C35.8625 30.0156 35.7214 30.0455 35.5604 30.0455ZM37.5504 30.0511C37.4122 30.0511 37.2867 30.0251 37.174 29.973C37.0613 29.92 36.9718 29.8437 36.9055 29.7443C36.8393 29.6439 36.8061 29.5227 36.8061 29.3807C36.8061 29.2557 36.8307 29.1544 36.88 29.0767C36.9292 28.9981 36.995 28.9365 37.0774 28.892C37.1598 28.8475 37.2507 28.8144 37.3501 28.7926C37.4505 28.7699 37.5514 28.7519 37.6527 28.7386C37.7853 28.7216 37.8928 28.7088 37.9751 28.7003C38.0585 28.6908 38.1191 28.6752 38.157 28.6534C38.1958 28.6316 38.2152 28.5937 38.2152 28.5398V28.5284C38.2152 28.3883 38.1768 28.2794 38.1001 28.2017C38.0244 28.124 37.9093 28.0852 37.755 28.0852C37.5949 28.0852 37.4695 28.1203 37.3786 28.1903C37.2876 28.2604 37.2237 28.3352 37.1868 28.4148L36.8686 28.3011C36.9254 28.1686 37.0012 28.0653 37.0959 27.9915C37.1915 27.9167 37.2957 27.8646 37.4084 27.8352C37.522 27.8049 37.6338 27.7898 37.7436 27.7898C37.8137 27.7898 37.8942 27.7983 37.9851 27.8153C38.0769 27.8314 38.1655 27.8651 38.2507 27.9162C38.3369 27.9673 38.4084 28.0445 38.4652 28.1477C38.522 28.2509 38.5504 28.3892 38.5504 28.5625V30H38.2152V29.7045H38.1982C38.1754 29.7519 38.1375 29.8026 38.0845 29.8565C38.0315 29.9105 37.9609 29.9564 37.8729 29.9943C37.7848 30.0322 37.6773 30.0511 37.5504 30.0511ZM37.6016 29.75C37.7341 29.75 37.8459 29.724 37.9368 29.6719C38.0286 29.6198 38.0978 29.5526 38.1442 29.4702C38.1915 29.3878 38.2152 29.3011 38.2152 29.2102V28.9034C38.201 28.9205 38.1697 28.9361 38.1214 28.9503C38.0741 28.9635 38.0192 28.9754 37.9567 28.9858C37.8951 28.9953 37.835 29.0038 37.7763 29.0114C37.7185 29.018 37.6716 29.0237 37.6357 29.0284C37.5485 29.0398 37.4671 29.0582 37.3913 29.0838C37.3165 29.1084 37.2559 29.1458 37.2095 29.196C37.1641 29.2453 37.1413 29.3125 37.1413 29.3977C37.1413 29.5142 37.1844 29.6023 37.2706 29.6619C37.3577 29.7206 37.468 29.75 37.6016 29.75ZM40.1112 27.8182V28.1023H38.9805V27.8182H40.1112ZM39.31 27.2955H39.6452V29.375C39.6452 29.4697 39.659 29.5407 39.6864 29.5881C39.7148 29.6345 39.7508 29.6657 39.7944 29.6818C39.8389 29.697 39.8858 29.7045 39.935 29.7045C39.9719 29.7045 40.0022 29.7026 40.0259 29.6989C40.0496 29.6941 40.0685 29.6903 40.0827 29.6875L40.1509 29.9886C40.1282 29.9972 40.0965 30.0057 40.0558 30.0142C40.015 30.0237 39.9634 30.0284 39.9009 30.0284C39.8062 30.0284 39.7134 30.008 39.6225 29.9673C39.5326 29.9266 39.4577 29.8646 39.3981 29.7812C39.3394 29.6979 39.31 29.5928 39.31 29.4659V27.2955ZM40.6154 30V27.8182H40.9506V30H40.6154ZM40.7859 27.4545C40.7205 27.4545 40.6642 27.4323 40.6168 27.3878C40.5704 27.3433 40.5472 27.2898 40.5472 27.2273C40.5472 27.1648 40.5704 27.1113 40.6168 27.0668C40.6642 27.0222 40.7205 27 40.7859 27C40.8512 27 40.9071 27.0222 40.9535 27.0668C41.0008 27.1113 41.0245 27.1648 41.0245 27.2273C41.0245 27.2898 41.0008 27.3433 40.9535 27.3878C40.9071 27.4323 40.8512 27.4545 40.7859 27.4545ZM42.451 30.0455C42.254 30.0455 42.0812 29.9986 41.9325 29.9048C41.7848 29.8111 41.6693 29.6799 41.5859 29.5114C41.5036 29.3428 41.4624 29.1458 41.4624 28.9205C41.4624 28.6932 41.5036 28.4948 41.5859 28.3253C41.6693 28.1558 41.7848 28.0241 41.9325 27.9304C42.0812 27.8366 42.254 27.7898 42.451 27.7898C42.648 27.7898 42.8203 27.8366 42.968 27.9304C43.1167 28.0241 43.2322 28.1558 43.3146 28.3253C43.398 28.4948 43.4396 28.6932 43.4396 28.9205C43.4396 29.1458 43.398 29.3428 43.3146 29.5114C43.2322 29.6799 43.1167 29.8111 42.968 29.9048C42.8203 29.9986 42.648 30.0455 42.451 30.0455ZM42.451 29.7443C42.6006 29.7443 42.7237 29.706 42.8203 29.6293C42.9169 29.5526 42.9884 29.4517 43.0348 29.3267C43.0812 29.2017 43.1044 29.0663 43.1044 28.9205C43.1044 28.7746 43.0812 28.6387 43.0348 28.5128C42.9884 28.3868 42.9169 28.285 42.8203 28.2074C42.7237 28.1297 42.6006 28.0909 42.451 28.0909C42.3014 28.0909 42.1783 28.1297 42.0817 28.2074C41.9851 28.285 41.9136 28.3868 41.8672 28.5128C41.8208 28.6387 41.7976 28.7746 41.7976 28.9205C41.7976 29.0663 41.8208 29.2017 41.8672 29.3267C41.9136 29.4517 41.9851 29.5526 42.0817 29.6293C42.1783 29.706 42.3014 29.7443 42.451 29.7443ZM44.2866 28.6875V30H43.9513V27.8182H44.2752V28.1591H44.3036C44.3548 28.0483 44.4324 27.9593 44.5366 27.892C44.6407 27.8239 44.7752 27.7898 44.94 27.7898C45.0877 27.7898 45.217 27.8201 45.3278 27.8807C45.4386 27.9403 45.5247 28.0312 45.5863 28.1534C45.6478 28.2746 45.6786 28.428 45.6786 28.6136V30H45.3434V28.6364C45.3434 28.465 45.2989 28.3314 45.2099 28.2358C45.1209 28.1392 44.9987 28.0909 44.8434 28.0909C44.7364 28.0909 44.6407 28.1141 44.5565 28.1605C44.4731 28.2069 44.4073 28.2746 44.359 28.3636C44.3107 28.4526 44.2866 28.5606 44.2866 28.6875ZM22.4453 35H21.5476V32.0909H22.4851C22.7673 32.0909 23.0088 32.1491 23.2095 32.2656C23.4103 32.3812 23.5642 32.5473 23.6712 32.7642C23.7782 32.9801 23.8317 33.2386 23.8317 33.5398C23.8317 33.8428 23.7777 34.1037 23.6697 34.3224C23.5618 34.5402 23.4046 34.7079 23.1982 34.8253C22.9917 34.9418 22.7408 35 22.4453 35ZM21.8999 34.6875H22.4226C22.6631 34.6875 22.8625 34.6411 23.0206 34.5483C23.1787 34.4555 23.2966 34.3234 23.3743 34.152C23.4519 33.9806 23.4908 33.7765 23.4908 33.5398C23.4908 33.3049 23.4524 33.1027 23.3757 32.9332C23.299 32.7628 23.1844 32.6321 23.032 32.5412C22.8795 32.4493 22.6896 32.4034 22.4624 32.4034H21.8999V34.6875ZM24.4226 35V32.0909H26.1783V32.4034H24.7749V33.3864H26.0874V33.6989H24.7749V34.6875H26.201V35H24.4226ZM26.9325 32.0909L27.7962 34.5398H27.8303L28.6939 32.0909H29.0632L27.995 35H27.6314L26.5632 32.0909H26.9325ZM29.5163 35V32.0909H31.272V32.4034H29.8686V33.3864H31.1811V33.6989H29.8686V34.6875H31.2947V35H29.5163ZM31.907 35V32.0909H32.2592V34.6875H33.6115V35H31.907ZM36.4982 33.5455C36.4982 33.8523 36.4428 34.1174 36.332 34.3409C36.2212 34.5644 36.0692 34.7367 35.8761 34.858C35.6829 34.9792 35.4622 35.0398 35.2141 35.0398C34.966 35.0398 34.7454 34.9792 34.5522 34.858C34.359 34.7367 34.207 34.5644 34.0962 34.3409C33.9854 34.1174 33.93 33.8523 33.93 33.5455C33.93 33.2386 33.9854 32.9735 34.0962 32.75C34.207 32.5265 34.359 32.3542 34.5522 32.233C34.7454 32.1117 34.966 32.0511 35.2141 32.0511C35.4622 32.0511 35.6829 32.1117 35.8761 32.233C36.0692 32.3542 36.2212 32.5265 36.332 32.75C36.4428 32.9735 36.4982 33.2386 36.4982 33.5455ZM36.1573 33.5455C36.1573 33.2936 36.1152 33.081 36.0309 32.9077C35.9476 32.7344 35.8344 32.6032 35.6914 32.5142C35.5494 32.4252 35.3903 32.3807 35.2141 32.3807C35.038 32.3807 34.8784 32.4252 34.7354 32.5142C34.5934 32.6032 34.4802 32.7344 34.396 32.9077C34.3126 33.081 34.271 33.2936 34.271 33.5455C34.271 33.7973 34.3126 34.0099 34.396 34.1832C34.4802 34.3565 34.5934 34.4877 34.7354 34.5767C34.8784 34.6657 35.038 34.7102 35.2141 34.7102C35.3903 34.7102 35.5494 34.6657 35.6914 34.5767C35.8344 34.4877 35.9476 34.3565 36.0309 34.1832C36.1152 34.0099 36.1573 33.7973 36.1573 33.5455ZM37.0906 35V32.0909H38.0735C38.3017 32.0909 38.4883 32.1321 38.6332 32.2145C38.779 32.2959 38.887 32.4062 38.957 32.5455C39.0271 32.6847 39.0621 32.84 39.0621 33.0114C39.0621 33.1828 39.0271 33.3385 38.957 33.4787C38.8879 33.6188 38.7809 33.7306 38.636 33.8139C38.4911 33.8963 38.3055 33.9375 38.0792 33.9375H37.3746V33.625H38.0678C38.2241 33.625 38.3496 33.598 38.4442 33.544C38.5389 33.4901 38.6076 33.4171 38.6502 33.3253C38.6938 33.2325 38.7156 33.1278 38.7156 33.0114C38.7156 32.8949 38.6938 32.7907 38.6502 32.6989C38.6076 32.607 38.5385 32.535 38.4428 32.483C38.3472 32.4299 38.2203 32.4034 38.0621 32.4034H37.4428V35H37.0906ZM39.6296 32.0909H40.0501L41.0387 34.5057H41.0728L42.0614 32.0909H42.4819V35H42.1523V32.7898H42.1239L41.2148 35H40.8967L39.9876 32.7898H39.9592V35H39.6296V32.0909ZM43.1882 35V32.0909H44.9439V32.4034H43.5405V33.3864H44.853V33.6989H43.5405V34.6875H44.9666V35H43.1882ZM47.8857 32.0909V35H47.5447L45.9595 32.7159H45.9311V35H45.5788V32.0909H45.9197L47.5107 34.3807H47.5391V32.0909H47.8857ZM48.4315 32.4034V32.0909H50.6133V32.4034H49.6985V35H49.3462V32.4034H48.4315Z" fill="url(#paint6_linear_9_3)"/>
<defs>
<radialGradient id="paint0_radial_9_3" cx="0" cy="0" r="1" gradientUnits="userSpaceOnUse" gradientTransform="translate(37.7566 62.7068) scale(37.2547 4.29348)">
<stop/>
<stop offset="0.0248" stop-color="#131313"/>
<stop offset="0.0948" stop-color="#444444"/>
<stop offset="0.1703" stop-color="#717171"/>
<stop offset="0.2496" stop-color="#979797"/>
<stop offset="0.3339" stop-color="#B7B7B7"/>
<stop offset="0.4244" stop-color="#D2D2D2"/>
<stop offset="0.5235" stop-color="#E6E6E6"/>
<stop offset="0.6356" stop-color="#F4F4F4"/>
<stop offset="0.7719" stop-color="#FCFCFC"/>
<stop offset="1" stop-color="white"/>
</radialGradient>
<linearGradient id="paint1_linear_9_3" x1="57.3034" y1="14.6405" x2="-8.75232" y2="85.8206" gradientUnits="userSpaceOnUse">
<stop stop-color="white"/>
<stop offset="1"/>
</linearGradient>
<linearGradient id="paint2_linear_9_3" x1="60.9117" y1="12.414" x2="21.2949" y2="54.5926" gradientUnits="userSpaceOnUse">
<stop stop-color="#FBB03B"/>
<stop offset="0.4242" stop-color="#F15A24"/>
<stop offset="0.9879" stop-color="#DB0C0B"/>
</linearGradient>
<linearGradient id="paint3_linear_9_3" x1="19.7131" y1="2.50559" x2="40.6445" y2="48.8859" gradientUnits="userSpaceOnUse">
<stop stop-color="#FBB03B"/>
<stop offset="0.4242" stop-color="#F15A24"/>
<stop offset="0.9879" stop-color="#DB0C0B"/>
</linearGradient>
<linearGradient id="paint4_linear_9_3" x1="10.4007" y1="7.50417" x2="49.7335" y2="54.0589" gradientUnits="userSpaceOnUse">
<stop stop-color="#FBB03B"/>
<stop offset="0.4242" stop-color="#F15A24"/>
<stop offset="0.9879" stop-color="#DB0C0B"/>
</linearGradient>
<radialGradient id="paint5_radial_9_3" cx="0" cy="0" r="1" gradientUnits="userSpaceOnUse" gradientTransform="translate(24.1619 44.057) rotate(0.826819) scale(121.224 104.755)">
<stop offset="0.2514" stop-color="white"/>
<stop offset="0.2671" stop-color="#F9F9F9"/>
<stop offset="0.2884" stop-color="#E8E8E8"/>
<stop offset="0.3127" stop-color="#CCCCCC"/>
<stop offset="0.3394" stop-color="#A4A4A4"/>
<stop offset="0.3679" stop-color="#727272"/>
<stop offset="0.3976" stop-color="#353535"/>
<stop offset="0.421"/>
</radialGradient>
<linearGradient id="paint6_linear_9_3" x1="35.2697" y1="26" x2="36.4163" y2="35.0398" gradientUnits="userSpaceOnUse">
<stop stop-color="#E77E46"/>
<stop offset="1" stop-color="#D91813"/>
</linearGradient>
</defs>
</svg>
