<svg width="72" height="67" viewBox="0 0 72 67" fill="none" xmlns="http://www.w3.org/2000/svg">
<path opacity="0.25" d="M35.8229 66.7698C55.5229 66.7698 71.4929 64.8581 71.4929 62.5C71.4929 60.1419 55.5229 58.2303 35.8229 58.2303C16.1229 58.2303 0.152882 60.1419 0.152882 62.5C0.152882 64.8581 16.1229 66.7698 35.8229 66.7698Z" fill="url(#paint0_radial_12_9)"/>
<path opacity="0.8" d="M3.34104 29.4915C2.79984 28.9876 2.84904 28.192 3.4296 27.6704L36.187 0.62004C36.7675 0.125 37.663 0.169202 38.2042 0.708442L68.3441 30.1368C68.8754 30.6318 68.8164 31.4451 68.2457 31.9402L35.4785 59.0171C34.9176 59.5033 34.0123 59.4856 33.4711 58.9464L3.34104 29.4915Z" fill="url(#paint1_linear_12_9)"/>
<path opacity="0.8" d="M10.5931 28.1036C10.1405 27.6705 10.17 26.9898 10.662 26.5478L38.46 3.59029C38.952 3.17481 39.7195 3.20132 40.1722 3.661L65.7463 28.634C66.1891 29.0583 66.1498 29.7567 65.6676 30.1633L37.8598 53.1385C37.3874 53.5451 36.6101 53.5274 36.1574 53.0854L10.5931 28.1036Z" fill="url(#paint2_linear_12_9)"/>
<path opacity="0.8" d="M29.909 53.5716C29.2793 53.8722 28.5118 53.6689 28.187 53.0943L9.64847 21.1996C9.31391 20.6515 9.56976 19.9443 10.1897 19.6526L45.6924 2.98916C46.3222 2.67976 47.0798 2.89192 47.4242 3.46652L65.953 35.3524C66.2974 35.927 66.0514 36.6165 65.4019 36.9347L29.909 53.5716Z" fill="url(#paint3_linear_12_9)"/>
<path opacity="0.8" d="M38.4403 49.797C38.027 50.1771 37.3678 50.1506 36.9545 49.797L14.106 28.7754C13.6927 28.4218 13.6927 27.8207 14.1257 27.4671L37.4957 6.94065C37.909 6.56053 38.5682 6.56053 38.9717 6.94065L61.8202 27.9356C62.2236 28.3069 62.2236 28.8904 61.8103 29.2616L38.4403 49.797Z" fill="url(#paint4_linear_12_9)"/>
<path d="M38.7749 49.6909C38.3518 50.0533 37.7023 50.0268 37.3087 49.6467L14.6078 28.7931C14.1946 28.4307 14.1946 27.8296 14.6078 27.476L37.8401 7.0644C38.2337 6.70196 38.8831 6.70196 39.2964 7.07324L62.017 27.9533C62.3909 28.3158 62.3909 28.9169 61.9874 29.2616L38.7749 49.6909Z" fill="url(#paint5_radial_12_9)"/>
<path d="M31.433 24.5C31.3939 24.3804 31.3424 24.2733 31.2785 24.1786C31.2158 24.0827 31.1406 24.0011 31.053 23.9336C30.9666 23.8661 30.8683 23.8146 30.7583 23.7791C30.6482 23.7436 30.5274 23.7259 30.396 23.7259C30.1806 23.7259 29.9847 23.7815 29.8083 23.8928C29.632 24.004 29.4917 24.168 29.3875 24.3846C29.2834 24.6012 29.2313 24.867 29.2313 25.1818C29.2313 25.4967 29.2839 25.7624 29.3893 25.979C29.4946 26.1957 29.6373 26.3596 29.8172 26.4709C29.9971 26.5821 30.1995 26.6378 30.4244 26.6378C30.6328 26.6378 30.8163 26.5934 30.9749 26.5046C31.1347 26.4147 31.259 26.288 31.3477 26.1246C31.4377 25.9601 31.4827 25.7666 31.4827 25.544L31.6176 25.5724H30.5239V25.1818H31.9088V25.5724C31.9088 25.8719 31.8449 26.1323 31.7171 26.3537C31.5904 26.575 31.4152 26.7467 31.1915 26.8686C30.969 26.9893 30.7133 27.0497 30.4244 27.0497C30.1025 27.0497 29.8196 26.974 29.5757 26.8224C29.3331 26.6709 29.1437 26.4555 29.0075 26.1761C28.8726 25.8968 28.8051 25.5653 28.8051 25.1818C28.8051 24.8942 28.8436 24.6355 28.9205 24.4059C28.9987 24.1751 29.1088 23.9786 29.2508 23.8164C29.3928 23.6542 29.5609 23.5299 29.7551 23.4435C29.9492 23.3571 30.1628 23.3139 30.396 23.3139C30.5878 23.3139 30.7665 23.3429 30.9323 23.4009C31.0992 23.4577 31.2477 23.5388 31.3779 23.6442C31.5093 23.7483 31.6188 23.8732 31.7064 24.0188C31.794 24.1632 31.8544 24.3236 31.8875 24.5H31.433ZM32.6062 27V24.2727H33.011V24.6847H33.0394C33.0891 24.5497 33.1791 24.4402 33.3093 24.3562C33.4395 24.2721 33.5863 24.2301 33.7496 24.2301C33.7804 24.2301 33.8189 24.2307 33.8651 24.2319C33.9112 24.2331 33.9461 24.2348 33.9698 24.2372V24.6634C33.9556 24.6598 33.9231 24.6545 33.8722 24.6474C33.8224 24.6391 33.7698 24.6349 33.7141 24.6349C33.5816 24.6349 33.4632 24.6628 33.359 24.7184C33.256 24.7728 33.1744 24.8486 33.114 24.9457C33.0548 25.0415 33.0252 25.151 33.0252 25.2741V27H32.6062ZM35.2691 27.0639C35.0963 27.0639 34.9394 27.0314 34.7986 26.9663C34.6577 26.9 34.5458 26.8047 34.463 26.6804C34.3801 26.5549 34.3387 26.4034 34.3387 26.2259C34.3387 26.0696 34.3695 25.9429 34.431 25.8459C34.4926 25.7476 34.5748 25.6707 34.6778 25.6151C34.7808 25.5594 34.8944 25.518 35.0187 25.4908C35.1442 25.4624 35.2703 25.4399 35.3969 25.4233C35.5626 25.402 35.697 25.386 35.8 25.3754C35.9041 25.3635 35.9799 25.344 36.0273 25.3168C36.0758 25.2895 36.1001 25.2422 36.1001 25.1747V25.1605C36.1001 24.9853 36.0521 24.8492 35.9562 24.7521C35.8615 24.6551 35.7177 24.6065 35.5248 24.6065C35.3247 24.6065 35.1679 24.6503 35.0542 24.7379C34.9406 24.8255 34.8607 24.919 34.8145 25.0185L34.4168 24.8764C34.4878 24.7107 34.5825 24.5817 34.7009 24.4893C34.8205 24.3958 34.9507 24.3307 35.0915 24.294C35.2336 24.2562 35.3733 24.2372 35.5106 24.2372C35.5982 24.2372 35.6988 24.2479 35.8124 24.2692C35.9272 24.2893 36.0379 24.3313 36.1444 24.3952C36.2522 24.4592 36.3415 24.5556 36.4126 24.6847C36.4836 24.8137 36.5191 24.9865 36.5191 25.2031V27H36.1001V26.6307H36.0787C36.0503 26.6899 36.003 26.7532 35.9367 26.8207C35.8704 26.8881 35.7822 26.9455 35.6721 26.9929C35.5621 27.0402 35.4277 27.0639 35.2691 27.0639ZM35.333 26.6875C35.4987 26.6875 35.6384 26.6549 35.752 26.5898C35.8669 26.5247 35.9533 26.4407 36.0113 26.3377C36.0705 26.2347 36.1001 26.1264 36.1001 26.0128V25.6293C36.0823 25.6506 36.0432 25.6701 35.9829 25.6879C35.9237 25.7044 35.855 25.7192 35.7769 25.7322C35.7 25.7441 35.6248 25.7547 35.5514 25.7642C35.4792 25.7725 35.4206 25.7796 35.3756 25.7855C35.2667 25.7997 35.1649 25.8228 35.0702 25.8548C34.9767 25.8855 34.901 25.9323 34.843 25.995C34.7861 26.0566 34.7577 26.1406 34.7577 26.2472C34.7577 26.3928 34.8116 26.5028 34.9193 26.5774C35.0282 26.6508 35.1661 26.6875 35.333 26.6875ZM37.2839 28.0227V24.2727H37.6887V24.706H37.7385C37.7692 24.6586 37.8118 24.5982 37.8663 24.5249C37.9219 24.4503 38.0012 24.384 38.1042 24.326C38.2084 24.2668 38.3493 24.2372 38.5268 24.2372C38.7565 24.2372 38.9589 24.2946 39.1341 24.4094C39.3092 24.5243 39.446 24.687 39.5442 24.8977C39.6425 25.1084 39.6916 25.357 39.6916 25.6435C39.6916 25.9323 39.6425 26.1826 39.5442 26.3945C39.446 26.6052 39.3098 26.7686 39.1358 26.8846C38.9618 26.9994 38.7612 27.0568 38.5339 27.0568C38.3587 27.0568 38.2185 27.0278 38.1131 26.9698C38.0078 26.9106 37.9267 26.8437 37.8699 26.7692C37.813 26.6934 37.7692 26.6307 37.7385 26.581H37.7029V28.0227H37.2839ZM37.6958 25.6364C37.6958 25.8423 37.726 26.024 37.7864 26.1815C37.8468 26.3377 37.935 26.4602 38.051 26.549C38.167 26.6366 38.309 26.6804 38.4771 26.6804C38.6523 26.6804 38.7985 26.6342 38.9157 26.5419C39.034 26.4484 39.1228 26.3229 39.182 26.1655C39.2424 26.0069 39.2725 25.8305 39.2725 25.6364C39.2725 25.4446 39.243 25.2718 39.1838 25.1179C39.1258 24.9628 39.0376 24.8403 38.9192 24.7504C38.802 24.6592 38.6547 24.6136 38.4771 24.6136C38.3066 24.6136 38.1634 24.6568 38.0474 24.7433C37.9314 24.8285 37.8438 24.948 37.7846 25.1019C37.7254 25.2546 37.6958 25.4328 37.6958 25.6364ZM40.7498 25.3594V27H40.3308V23.3636H40.7498V24.6989H40.7853C40.8493 24.558 40.9451 24.4461 41.073 24.3633C41.202 24.2792 41.3736 24.2372 41.5879 24.2372C41.7737 24.2372 41.9365 24.2745 42.0762 24.3491C42.2158 24.4225 42.3242 24.5355 42.4011 24.6882C42.4792 24.8397 42.5183 25.0327 42.5183 25.267V27H42.0993V25.2955C42.0993 25.0788 42.043 24.9113 41.9306 24.793C41.8193 24.6734 41.6648 24.6136 41.4672 24.6136C41.3298 24.6136 41.2067 24.6426 41.0978 24.7006C40.9901 24.7586 40.9049 24.8433 40.8422 24.9545C40.7806 25.0658 40.7498 25.2008 40.7498 25.3594ZM43.2849 27V24.2727H43.7039V27H43.2849ZM43.498 23.8182C43.4163 23.8182 43.3459 23.7904 43.2867 23.7347C43.2287 23.6791 43.1997 23.6122 43.1997 23.5341C43.1997 23.456 43.2287 23.3891 43.2867 23.3335C43.3459 23.2778 43.4163 23.25 43.498 23.25C43.5796 23.25 43.6495 23.2778 43.7075 23.3335C43.7667 23.3891 43.7963 23.456 43.7963 23.5341C43.7963 23.6122 43.7667 23.6791 43.7075 23.7347C43.6495 23.7904 43.5796 23.8182 43.498 23.8182ZM45.5794 27.0568C45.3237 27.0568 45.1035 26.9964 44.9189 26.8757C44.7342 26.755 44.5922 26.5887 44.4927 26.3768C44.3933 26.1649 44.3436 25.9228 44.3436 25.6506C44.3436 25.3736 44.3945 25.1291 44.4963 24.9173C44.5993 24.7042 44.7425 24.5379 44.926 24.4183C45.1106 24.2976 45.3261 24.2372 45.5723 24.2372C45.764 24.2372 45.9368 24.2727 46.0907 24.3438C46.2446 24.4148 46.3707 24.5142 46.4689 24.642C46.5672 24.7699 46.6281 24.919 46.6518 25.0895H46.2328C46.2008 24.9652 46.1298 24.8551 46.0197 24.7592C45.9108 24.6622 45.764 24.6136 45.5794 24.6136C45.416 24.6136 45.2728 24.6562 45.1497 24.7415C45.0278 24.8255 44.9325 24.9445 44.8638 25.0984C44.7963 25.2511 44.7626 25.4304 44.7626 25.6364C44.7626 25.8471 44.7958 26.0305 44.862 26.1868C44.9295 26.343 45.0242 26.4644 45.1461 26.5508C45.2692 26.6372 45.4136 26.6804 45.5794 26.6804C45.6883 26.6804 45.7871 26.6615 45.8759 26.6236C45.9647 26.5857 46.0398 26.5312 46.1014 26.4602C46.1629 26.3892 46.2067 26.304 46.2328 26.2045H46.6518C46.6281 26.3655 46.5695 26.5105 46.476 26.6396C46.3837 26.7674 46.2612 26.8692 46.1085 26.945C45.957 27.0195 45.7806 27.0568 45.5794 27.0568ZM49.1962 24.8835L48.8198 24.9901C48.7961 24.9273 48.7612 24.8664 48.715 24.8072C48.67 24.7468 48.6085 24.6971 48.5304 24.658C48.4522 24.619 48.3522 24.5994 48.2303 24.5994C48.0634 24.5994 47.9243 24.6379 47.813 24.7148C47.7029 24.7906 47.6479 24.8871 47.6479 25.0043C47.6479 25.1084 47.6858 25.1907 47.7615 25.2511C47.8373 25.3114 47.9557 25.3617 48.1167 25.402L48.5215 25.5014C48.7653 25.5606 48.947 25.6512 49.0666 25.7731C49.1861 25.8938 49.2459 26.0495 49.2459 26.2401C49.2459 26.3963 49.2009 26.536 49.111 26.6591C49.0222 26.7822 48.8979 26.8793 48.7381 26.9503C48.5783 27.0213 48.3925 27.0568 48.1806 27.0568C47.9024 27.0568 47.6722 26.9964 47.4899 26.8757C47.3076 26.755 47.1922 26.5786 47.1436 26.3466L47.5414 26.2472C47.5792 26.3939 47.6509 26.504 47.7562 26.5774C47.8627 26.6508 48.0018 26.6875 48.1735 26.6875C48.3688 26.6875 48.5239 26.6461 48.6387 26.5632C48.7547 26.4792 48.8127 26.3786 48.8127 26.2614C48.8127 26.1667 48.7795 26.0874 48.7132 26.0234C48.647 25.9583 48.5452 25.9098 48.4078 25.8778L47.9533 25.7713C47.7035 25.7121 47.5201 25.6204 47.4029 25.4961C47.2869 25.3706 47.2289 25.2138 47.2289 25.0256C47.2289 24.8717 47.2721 24.7356 47.3585 24.6172C47.4461 24.4988 47.565 24.4059 47.7154 24.3384C47.8669 24.271 48.0385 24.2372 48.2303 24.2372C48.5002 24.2372 48.7121 24.2964 48.8659 24.4148C49.021 24.5331 49.1311 24.6894 49.1962 24.8835ZM32.4253 33H31.3031V29.3636H32.475C32.8278 29.3636 33.1296 29.4364 33.3805 29.582C33.6315 29.7264 33.8238 29.9342 33.9576 30.2053C34.0914 30.4751 34.1582 30.7983 34.1582 31.1747C34.1582 31.5535 34.0908 31.8796 33.9558 32.1531C33.8209 32.4253 33.6244 32.6348 33.3663 32.7816C33.1083 32.9272 32.7946 33 32.4253 33ZM31.7435 32.6094H32.3969C32.6975 32.6094 32.9467 32.5514 33.1444 32.4354C33.3421 32.3194 33.4895 32.1542 33.5865 31.94C33.6836 31.7257 33.7321 31.4706 33.7321 31.1747C33.7321 30.8812 33.6842 30.6284 33.5883 30.4165C33.4924 30.2035 33.3492 30.0401 33.1586 29.9265C32.968 29.8117 32.7307 29.7543 32.4466 29.7543H31.7435V32.6094ZM35.9835 33.0568C35.7207 33.0568 35.4941 32.9988 35.3035 32.8828C35.1141 32.7656 34.9679 32.6023 34.8649 32.3928C34.7631 32.1821 34.7122 31.937 34.7122 31.6577C34.7122 31.3783 34.7631 31.1321 34.8649 30.919C34.9679 30.7048 35.1111 30.5379 35.2946 30.4183C35.4793 30.2976 35.6947 30.2372 35.9409 30.2372C36.083 30.2372 36.2232 30.2609 36.3617 30.3082C36.5002 30.3556 36.6263 30.4325 36.7399 30.5391C36.8536 30.6444 36.9441 30.7841 37.0116 30.9581C37.0791 31.1321 37.1128 31.3464 37.1128 31.6009V31.7784H35.0105V31.4162H36.6867C36.6867 31.2623 36.6559 31.125 36.5943 31.0043C36.534 30.8835 36.4475 30.7882 36.3351 30.7184C36.2238 30.6486 36.0924 30.6136 35.9409 30.6136C35.774 30.6136 35.6296 30.6551 35.5077 30.7379C35.3869 30.8196 35.294 30.9261 35.2289 31.0575C35.1638 31.1889 35.1313 31.3298 35.1313 31.4801V31.7216C35.1313 31.9276 35.1668 32.1022 35.2378 32.2454C35.31 32.3874 35.41 32.4957 35.5379 32.5703C35.6657 32.6437 35.8143 32.6804 35.9835 32.6804C36.0936 32.6804 36.193 32.665 36.2818 32.6342C36.3718 32.6023 36.4493 32.5549 36.5144 32.4922C36.5795 32.4283 36.6298 32.349 36.6653 32.2543L37.0702 32.3679C37.0276 32.5052 36.956 32.6259 36.8553 32.7301C36.7547 32.8331 36.6304 32.9136 36.4825 32.9716C36.3345 33.0284 36.1682 33.0568 35.9835 33.0568ZM39.682 30.8835L39.3056 30.9901C39.2819 30.9273 39.247 30.8664 39.2009 30.8072C39.1559 30.7468 39.0943 30.6971 39.0162 30.658C38.9381 30.619 38.8381 30.5994 38.7161 30.5994C38.5492 30.5994 38.4101 30.6379 38.2989 30.7148C38.1888 30.7906 38.1337 30.8871 38.1337 31.0043C38.1337 31.1084 38.1716 31.1907 38.2474 31.2511C38.3231 31.3114 38.4415 31.3617 38.6025 31.402L39.0073 31.5014C39.2512 31.5606 39.4329 31.6512 39.5524 31.7731C39.672 31.8938 39.7318 32.0495 39.7318 32.2401C39.7318 32.3963 39.6868 32.536 39.5968 32.6591C39.508 32.7822 39.3837 32.8793 39.2239 32.9503C39.0641 33.0213 38.8783 33.0568 38.6664 33.0568C38.3882 33.0568 38.158 32.9964 37.9757 32.8757C37.7934 32.755 37.678 32.5786 37.6295 32.3466L38.0272 32.2472C38.0651 32.3939 38.1367 32.504 38.2421 32.5774C38.3486 32.6508 38.4877 32.6875 38.6593 32.6875C38.8546 32.6875 39.0097 32.6461 39.1245 32.5632C39.2405 32.4792 39.2985 32.3786 39.2985 32.2614C39.2985 32.1667 39.2654 32.0874 39.1991 32.0234C39.1328 31.9583 39.031 31.9098 38.8937 31.8778L38.4391 31.7713C38.1894 31.7121 38.0059 31.6204 37.8887 31.4961C37.7727 31.3706 37.7147 31.2138 37.7147 31.0256C37.7147 30.8717 37.7579 30.7356 37.8443 30.6172C37.9319 30.4988 38.0509 30.4059 38.2012 30.3384C38.3527 30.271 38.5244 30.2372 38.7161 30.2372C38.986 30.2372 39.1979 30.2964 39.3518 30.4148C39.5069 30.5331 39.6169 30.6894 39.682 30.8835ZM40.3625 33V30.2727H40.7816V33H40.3625ZM40.5756 29.8182C40.4939 29.8182 40.4235 29.7904 40.3643 29.7347C40.3063 29.6791 40.2773 29.6122 40.2773 29.5341C40.2773 29.456 40.3063 29.3891 40.3643 29.3335C40.4235 29.2778 40.4939 29.25 40.5756 29.25C40.6573 29.25 40.7271 29.2778 40.7851 29.3335C40.8443 29.3891 40.8739 29.456 40.8739 29.5341C40.8739 29.6122 40.8443 29.6791 40.7851 29.7347C40.7271 29.7904 40.6573 29.8182 40.5756 29.8182ZM42.6499 34.0795C42.4475 34.0795 42.2735 34.0535 42.1279 34.0014C41.9823 33.9505 41.861 33.883 41.7639 33.799C41.668 33.7161 41.5917 33.6274 41.5348 33.5327L41.8687 33.2983C41.9065 33.348 41.9545 33.4048 42.0125 33.4688C42.0705 33.5339 42.1498 33.5901 42.2504 33.6374C42.3522 33.686 42.4854 33.7102 42.6499 33.7102C42.8701 33.7102 43.0518 33.657 43.195 33.5504C43.3382 33.4439 43.4098 33.277 43.4098 33.0497V32.4957H43.3743C43.3436 32.5455 43.2998 32.607 43.2429 32.6804C43.1873 32.7526 43.1068 32.8171 43.0015 32.8739C42.8973 32.9296 42.7564 32.9574 42.5789 32.9574C42.3587 32.9574 42.161 32.9053 41.9858 32.8011C41.8118 32.697 41.6739 32.5455 41.5721 32.3466C41.4715 32.1477 41.4212 31.9062 41.4212 31.6222C41.4212 31.3428 41.4703 31.0996 41.5686 30.8924C41.6668 30.6841 41.8035 30.5231 41.9787 30.4094C42.1539 30.2946 42.3563 30.2372 42.586 30.2372C42.7635 30.2372 42.9044 30.2668 43.0086 30.326C43.1139 30.384 43.1944 30.4503 43.25 30.5249C43.3069 30.5982 43.3507 30.6586 43.3814 30.706H43.4241V30.2727H43.8289V33.0781C43.8289 33.3125 43.7756 33.5031 43.6691 33.6499C43.5637 33.7978 43.4217 33.9061 43.2429 33.9748C43.0654 34.0446 42.8677 34.0795 42.6499 34.0795ZM42.6357 32.581C42.8038 32.581 42.9458 32.5425 43.0618 32.4656C43.1778 32.3886 43.266 32.2779 43.3264 32.1335C43.3868 31.9891 43.4169 31.8163 43.4169 31.6151C43.4169 31.4186 43.3874 31.2451 43.3282 31.0948C43.269 30.9445 43.1814 30.8267 43.0654 30.7415C42.9494 30.6562 42.8062 30.6136 42.6357 30.6136C42.4581 30.6136 42.3102 30.6586 42.1918 30.7486C42.0746 30.8385 41.9864 30.9593 41.9272 31.1108C41.8692 31.2623 41.8402 31.4304 41.8402 31.6151C41.8402 31.8045 41.8698 31.9719 41.929 32.1175C41.9894 32.262 42.0782 32.3756 42.1954 32.4585C42.3137 32.5401 42.4605 32.581 42.6357 32.581ZM45.015 31.3594V33H44.5959V30.2727H45.0008V30.6989H45.0363C45.1002 30.5604 45.1973 30.4491 45.3275 30.3651C45.4577 30.2798 45.6258 30.2372 45.8317 30.2372C46.0164 30.2372 46.178 30.2751 46.3165 30.3509C46.4549 30.4254 46.5627 30.5391 46.6396 30.6918C46.7165 30.8433 46.755 31.035 46.755 31.267V33H46.336V31.2955C46.336 31.0812 46.2803 30.9143 46.1691 30.7947C46.0578 30.674 45.9051 30.6136 45.711 30.6136C45.5772 30.6136 45.4577 30.6426 45.3523 30.7006C45.2482 30.7586 45.1659 30.8433 45.1055 30.9545C45.0451 31.0658 45.015 31.2008 45.015 31.3594Z" fill="url(#paint6_linear_12_9)"/>
<defs>
<radialGradient id="paint0_radial_12_9" cx="0" cy="0" r="1" gradientUnits="userSpaceOnUse" gradientTransform="translate(35.8271 62.4974) scale(35.6667 4.27356)">
<stop/>
<stop offset="0.0248" stop-color="#131313"/>
<stop offset="0.0948" stop-color="#444444"/>
<stop offset="0.1703" stop-color="#717171"/>
<stop offset="0.2496" stop-color="#979797"/>
<stop offset="0.3339" stop-color="#B7B7B7"/>
<stop offset="0.4244" stop-color="#D2D2D2"/>
<stop offset="0.5235" stop-color="#E6E6E6"/>
<stop offset="0.6356" stop-color="#F4F4F4"/>
<stop offset="0.7719" stop-color="#FCFCFC"/>
<stop offset="1" stop-color="white"/>
</radialGradient>
<linearGradient id="paint1_linear_12_9" x1="54.5573" y1="14.1452" x2="-11.3651" y2="82.4704" gradientUnits="userSpaceOnUse">
<stop stop-color="white"/>
<stop offset="1"/>
</linearGradient>
<linearGradient id="paint2_linear_12_9" x1="60.7202" y1="9.72218" x2="21.2042" y2="50.1877" gradientUnits="userSpaceOnUse">
<stop stop-color="#C3FFFF"/>
<stop offset="0.4242" stop-color="#3FBFFF"/>
<stop offset="0.9879" stop-color="#005FFF"/>
</linearGradient>
<linearGradient id="paint3_linear_12_9" x1="21.267" y1="-0.156458" x2="42.6487" y2="45.4135" gradientUnits="userSpaceOnUse">
<stop stop-color="#C3FFFF"/>
<stop offset="0.4242" stop-color="#3FBFFF"/>
<stop offset="0.9879" stop-color="#005FFF"/>
</linearGradient>
<linearGradient id="paint4_linear_12_9" x1="12.3519" y1="4.82795" x2="51.7421" y2="49.6713" gradientUnits="userSpaceOnUse">
<stop stop-color="#C3FFFF"/>
<stop offset="0.4242" stop-color="#3FBFFF"/>
<stop offset="0.9879" stop-color="#005FFF"/>
</linearGradient>
<radialGradient id="paint5_radial_12_9" cx="0" cy="0" r="1" gradientUnits="userSpaceOnUse" gradientTransform="translate(26.2435 40.4995) rotate(0.859621) scale(109.614 98.4797)">
<stop offset="0.2514" stop-color="white"/>
<stop offset="0.2671" stop-color="#F9F9F9"/>
<stop offset="0.2884" stop-color="#E8E8E8"/>
<stop offset="0.3127" stop-color="#CCCCCC"/>
<stop offset="0.3394" stop-color="#A4A4A4"/>
<stop offset="0.3679" stop-color="#727272"/>
<stop offset="0.3976" stop-color="#353535"/>
<stop offset="0.421"/>
</radialGradient>
<linearGradient id="paint6_linear_12_9" x1="37.9776" y1="22" x2="39.4357" y2="34.0709" gradientUnits="userSpaceOnUse">
<stop stop-color="#7BD0F2"/>
<stop offset="1" stop-color="#1273FD"/>
</linearGradient>
</defs>
</svg>
