<svg width="72" height="68" viewBox="0 0 72 68" fill="none" xmlns="http://www.w3.org/2000/svg">
<path opacity="0.25" d="M71.4407 63.6109C71.4407 65.98 55.4704 67.8895 35.7707 67.8895C16.071 67.8895 0.100723 65.9712 0.100723 63.6109C0.100723 61.2506 16.071 59.3412 35.7707 59.3412C55.4704 59.3412 71.4407 61.2506 71.4407 63.6109Z" fill="url(#paint0_radial_12_8)"/>
<path opacity="0.8" d="M3.2692 29.4178C2.728 28.9051 2.7772 28.1095 3.34792 27.5968L36.1053 0.537516C36.6858 0.0424764 37.5911 0.0955184 38.1225 0.625918L68.2624 30.0631C68.7839 30.5493 68.7347 31.3714 68.1738 31.8576L35.4066 58.9434C34.8458 59.4208 33.9405 59.4119 33.3993 58.8727L3.2692 29.4178Z" fill="url(#paint1_linear_12_8)"/>
<path opacity="0.8" d="M8.1892 29.4708C7.73656 29.0377 7.77592 28.357 8.26792 27.915L36.0561 4.95752C36.5481 4.5332 37.3156 4.57741 37.7682 5.02825L63.3522 30.0012C63.7852 30.4256 63.7557 31.1239 63.2735 31.5306L35.4657 54.5146C34.9934 54.9212 34.216 54.9035 33.7634 54.4527L8.1892 29.4708Z" fill="url(#paint2_linear_12_8)"/>
<path opacity="0.8" d="M27.5051 54.93C26.8852 55.2483 26.1078 55.045 25.7733 54.4704L7.23472 22.5756C6.90016 22.0187 7.14616 21.3115 7.78576 21.0198L43.2786 4.36525C43.9084 4.04701 44.6858 4.25917 45.0105 4.84261L63.5392 36.7196C63.8738 37.2854 63.6376 37.9926 62.9882 38.2932L27.5051 54.93Z" fill="url(#paint3_linear_12_8)"/>
<path opacity="0.8" d="M36.0364 51.173C35.633 51.5443 34.9737 51.5266 34.5604 51.173L11.7119 30.1427C11.2986 29.7891 11.2986 29.1791 11.7316 28.8344L35.1016 8.30787C35.505 7.92775 36.1643 7.92775 36.5776 8.30787L59.4261 29.3029C59.8295 29.6742 59.8295 30.2576 59.4261 30.6289L36.0364 51.173Z" fill="url(#paint4_linear_12_8)"/>
<path d="M36.4005 51.8891C35.9675 52.2692 35.2787 52.2427 34.8654 51.8449L11.279 30.178C10.8657 29.7891 10.8657 29.1791 11.279 28.8344L35.4263 7.61836C35.8396 7.24708 36.5186 7.24708 36.9417 7.63604L60.5478 29.3117C60.9414 29.7007 60.9414 30.3283 60.5183 30.6819L36.4005 51.8891Z" fill="url(#paint5_radial_12_8)"/>
<path d="M31.6072 24.8182C31.5902 24.6742 31.5211 24.5625 31.3999 24.483C31.2786 24.4034 31.13 24.3636 30.9538 24.3636C30.825 24.3636 30.7124 24.3845 30.6158 24.4261C30.5201 24.4678 30.4453 24.5251 30.3913 24.598C30.3383 24.6709 30.3118 24.7538 30.3118 24.8466C30.3118 24.9242 30.3303 24.991 30.3672 25.0469C30.4051 25.1018 30.4534 25.1477 30.5121 25.1847C30.5708 25.2206 30.6323 25.2505 30.6967 25.2741C30.7611 25.2969 30.8203 25.3153 30.8743 25.3295L31.1697 25.4091C31.2455 25.429 31.3298 25.4564 31.4226 25.4915C31.5163 25.5265 31.6058 25.5743 31.6911 25.6349C31.7772 25.6946 31.8482 25.7713 31.9041 25.8651C31.96 25.9588 31.9879 26.0739 31.9879 26.2102C31.9879 26.3674 31.9467 26.5095 31.8643 26.6364C31.7829 26.7633 31.6636 26.8641 31.5064 26.9389C31.3501 27.0137 31.1603 27.0511 30.9368 27.0511C30.7285 27.0511 30.5481 27.0175 30.3956 26.9503C30.2441 26.883 30.1248 26.7893 30.0376 26.669C29.9515 26.5488 29.9027 26.4091 29.8913 26.25H30.255C30.2644 26.3598 30.3014 26.4508 30.3658 26.5227C30.4311 26.5937 30.5135 26.6468 30.6129 26.6818C30.7133 26.7159 30.8213 26.733 30.9368 26.733C31.0713 26.733 31.192 26.7112 31.299 26.6676C31.406 26.6231 31.4908 26.5616 31.5533 26.483C31.6158 26.4034 31.647 26.3106 31.647 26.2045C31.647 26.108 31.62 26.0294 31.5661 25.9688C31.5121 25.9081 31.4411 25.8589 31.353 25.821C31.2649 25.7831 31.1697 25.75 31.0675 25.7216L30.7095 25.6193C30.4822 25.554 30.3023 25.4607 30.1697 25.3395C30.0372 25.2183 29.9709 25.0597 29.9709 24.8636C29.9709 24.7008 30.0149 24.5587 30.103 24.4375C30.192 24.3153 30.3113 24.2206 30.4609 24.1534C30.6115 24.0852 30.7796 24.0511 30.9652 24.0511C31.1527 24.0511 31.3194 24.0848 31.4652 24.152C31.611 24.2183 31.7266 24.3092 31.8118 24.4247C31.898 24.5402 31.9434 24.6714 31.9482 24.8182H31.6072ZM32.5671 27V24.0909H34.3228V24.4034H32.9194V25.3864H34.2319V25.6989H32.9194V26.6875H34.3455V27H32.5671ZM37.4123 25.5455C37.4123 25.8523 37.3569 26.1174 37.2461 26.3409C37.1353 26.5644 36.9833 26.7367 36.7901 26.858C36.5969 26.9792 36.3763 27.0398 36.1282 27.0398C35.8801 27.0398 35.6594 26.9792 35.4663 26.858C35.2731 26.7367 35.1211 26.5644 35.0103 26.3409C34.8995 26.1174 34.8441 25.8523 34.8441 25.5455C34.8441 25.2386 34.8995 24.9735 35.0103 24.75C35.1211 24.5265 35.2731 24.3542 35.4663 24.233C35.6594 24.1117 35.8801 24.0511 36.1282 24.0511C36.3763 24.0511 36.5969 24.1117 36.7901 24.233C36.9833 24.3542 37.1353 24.5265 37.2461 24.75C37.3569 24.9735 37.4123 25.2386 37.4123 25.5455ZM37.0714 25.5455C37.0714 25.2936 37.0292 25.081 36.945 24.9077C36.8616 24.7344 36.7485 24.6032 36.6055 24.5142C36.4634 24.4252 36.3043 24.3807 36.1282 24.3807C35.9521 24.3807 35.7925 24.4252 35.6495 24.5142C35.5075 24.6032 35.3943 24.7344 35.31 24.9077C35.2267 25.081 35.185 25.2936 35.185 25.5455C35.185 25.7973 35.2267 26.0099 35.31 26.1832C35.3943 26.3565 35.5075 26.4877 35.6495 26.5767C35.7925 26.6657 35.9521 26.7102 36.1282 26.7102C36.3043 26.7102 36.4634 26.6657 36.6055 26.5767C36.7485 26.4877 36.8616 26.3565 36.945 26.1832C37.0292 26.0099 37.0714 25.7973 37.0714 25.5455ZM39.908 27.0398C39.7167 27.0398 39.552 27.0047 39.4137 26.9347C39.2754 26.8646 39.1689 26.7685 39.0941 26.6463C39.0193 26.5241 38.9819 26.3845 38.9819 26.2273C38.9819 26.1061 39.0075 25.9986 39.0586 25.9048C39.1107 25.8101 39.1822 25.7225 39.2731 25.642C39.3649 25.5606 39.4705 25.4792 39.5898 25.3977L40.0103 25.0852C40.0927 25.0312 40.1585 24.9735 40.2077 24.9119C40.2579 24.8504 40.283 24.7699 40.283 24.6705C40.283 24.5966 40.2504 24.5251 40.185 24.456C40.1206 24.3868 40.0359 24.3523 39.9308 24.3523C39.8569 24.3523 39.7915 24.3712 39.7347 24.4091C39.6789 24.446 39.6348 24.4934 39.6026 24.5511C39.5714 24.608 39.5558 24.6667 39.5558 24.7273C39.5558 24.7955 39.5742 24.8646 39.6112 24.9347C39.649 25.0038 39.6969 25.0748 39.7546 25.1477C39.8133 25.2197 39.8739 25.2936 39.9364 25.3693L41.2717 27H40.8683L39.766 25.6705C39.6637 25.5473 39.5709 25.4356 39.4876 25.3352C39.4042 25.2348 39.3379 25.1359 39.2887 25.0384C39.2395 24.9408 39.2148 24.8352 39.2148 24.7216C39.2148 24.5909 39.2437 24.4763 39.3015 24.3778C39.3602 24.2784 39.4421 24.2012 39.5472 24.1463C39.6533 24.0904 39.7773 24.0625 39.9194 24.0625C40.0652 24.0625 40.1907 24.0909 40.2958 24.1477C40.4009 24.2036 40.4819 24.2779 40.5387 24.3707C40.5955 24.4626 40.6239 24.5625 40.6239 24.6705C40.6239 24.8097 40.5894 24.9304 40.5202 25.0327C40.4511 25.1349 40.3569 25.2301 40.2376 25.3182L39.658 25.75C39.5273 25.8466 39.4388 25.9403 39.3924 26.0312C39.346 26.1222 39.3228 26.1875 39.3228 26.2273C39.3228 26.3182 39.3465 26.4029 39.3938 26.4815C39.4412 26.5601 39.5079 26.6236 39.5941 26.6719C39.6803 26.7202 39.7811 26.7443 39.8967 26.7443C40.0065 26.7443 40.1135 26.7211 40.2177 26.6747C40.3219 26.6274 40.4161 26.5592 40.5004 26.4702C40.5856 26.3812 40.6528 26.2741 40.7021 26.1491C40.7522 26.0241 40.7773 25.8835 40.7773 25.7273H41.1012C41.1012 25.9205 41.079 26.0781 41.0344 26.2003C40.9899 26.3224 40.9397 26.4181 40.8839 26.4872C40.828 26.5563 40.783 26.608 40.7489 26.642C40.7376 26.6562 40.7272 26.6705 40.7177 26.6847C40.7082 26.6989 40.6978 26.7131 40.6864 26.7273C40.5927 26.8324 40.4743 26.911 40.3313 26.9631C40.1883 27.0142 40.0472 27.0398 39.908 27.0398ZM16.9004 32H16.0027V29.0909H16.9402C17.2224 29.0909 17.4638 29.1491 17.6646 29.2656C17.8654 29.3812 18.0192 29.5473 18.1262 29.7642C18.2333 29.9801 18.2868 30.2386 18.2868 30.5398C18.2868 30.8428 18.2328 31.1037 18.1248 31.3224C18.0169 31.5402 17.8597 31.7079 17.6532 31.8253C17.4468 31.9418 17.1958 32 16.9004 32ZM16.3549 31.6875H16.8777C17.1182 31.6875 17.3175 31.6411 17.4757 31.5483C17.6338 31.4555 17.7517 31.3234 17.8294 31.152C17.907 30.9806 17.9458 30.7765 17.9458 30.5398C17.9458 30.3049 17.9075 30.1027 17.8308 29.9332C17.7541 29.7628 17.6395 29.6321 17.487 29.5412C17.3346 29.4493 17.1447 29.4034 16.9174 29.4034H16.3549V31.6875ZM19.2299 29.0909V32H18.8777V29.0909H19.2299ZM21.9249 30C21.8936 29.9044 21.8525 29.8187 21.8013 29.7429C21.7511 29.6662 21.691 29.6009 21.6209 29.5469C21.5518 29.4929 21.4732 29.4517 21.3851 29.4233C21.2971 29.3949 21.2005 29.3807 21.0953 29.3807C20.923 29.3807 20.7663 29.4252 20.6252 29.5142C20.4841 29.6032 20.3719 29.7344 20.2885 29.9077C20.2052 30.081 20.1635 30.2936 20.1635 30.5455C20.1635 30.7973 20.2057 31.0099 20.29 31.1832C20.3742 31.3565 20.4883 31.4877 20.6323 31.5767C20.7762 31.6657 20.9382 31.7102 21.1181 31.7102C21.2847 31.7102 21.4315 31.6747 21.5584 31.6037C21.6863 31.5317 21.7857 31.4304 21.8567 31.2997C21.9287 31.1681 21.9647 31.0133 21.9647 30.8352L22.0726 30.858H21.1976V30.5455H22.3056V30.858C22.3056 31.0975 22.2544 31.3059 22.1522 31.483C22.0508 31.66 21.9107 31.7973 21.7317 31.8949C21.5537 31.9915 21.3491 32.0398 21.1181 32.0398C20.8605 32.0398 20.6342 31.9792 20.4391 31.858C20.245 31.7367 20.0935 31.5644 19.9846 31.3409C19.8766 31.1174 19.8226 30.8523 19.8226 30.5455C19.8226 30.3153 19.8534 30.1084 19.915 29.9247C19.9775 29.7401 20.0655 29.5829 20.1792 29.4531C20.2928 29.3234 20.4273 29.224 20.5826 29.1548C20.7379 29.0857 20.9088 29.0511 21.0953 29.0511C21.2488 29.0511 21.3917 29.0743 21.5243 29.1207C21.6578 29.1662 21.7767 29.2311 21.8809 29.3153C21.986 29.3987 22.0736 29.4986 22.1436 29.6151C22.2137 29.7306 22.262 29.8589 22.2885 30H21.9249ZM23.2612 29.0909V32H22.9089V29.0909H23.2612ZM23.8084 29.4034V29.0909H25.9902V29.4034H25.0755V32H24.7232V29.4034H23.8084ZM26.3134 32H25.9441L27.0123 29.0909H27.3759L28.4441 32H28.0748L27.2054 29.5511H27.1827L26.3134 32ZM26.4498 30.8636H27.9384V31.1761H26.4498V30.8636ZM28.8972 32V29.0909H29.2495V31.6875H30.6017V32H28.8972ZM32.2722 29.0909H32.6926L33.6813 31.5057H33.7154L34.704 29.0909H35.1245V32H34.7949V29.7898H34.7665L33.8574 32H33.5392L32.6301 29.7898H32.6017V32H32.2722V29.0909ZM35.9501 32H35.5808L36.649 29.0909H37.0126L38.0808 32H37.7115L36.8422 29.5511H36.8194L35.9501 32ZM36.0865 30.8636H37.5751V31.1761H36.0865V30.8636ZM38.5339 32V29.0909H39.5169C39.7441 29.0909 39.9307 29.1297 40.0765 29.2074C40.2224 29.2841 40.3303 29.3897 40.4004 29.5241C40.4705 29.6586 40.5055 29.8116 40.5055 29.983C40.5055 30.1544 40.4705 30.3063 40.4004 30.4389C40.3303 30.5715 40.2228 30.6757 40.0779 30.7514C39.9331 30.8262 39.7479 30.8636 39.5225 30.8636H38.7271V30.5455H39.5112C39.6665 30.5455 39.7915 30.5227 39.8862 30.4773C39.9818 30.4318 40.051 30.3674 40.0936 30.2841C40.1371 30.1998 40.1589 30.0994 40.1589 29.983C40.1589 29.8665 40.1371 29.7647 40.0936 29.6776C40.05 29.5904 39.9804 29.5232 39.8848 29.4759C39.7891 29.4276 39.6627 29.4034 39.5055 29.4034H38.8862V32H38.5339ZM39.9032 30.6932L40.6191 32H40.21L39.5055 30.6932H39.9032ZM41.0925 32V29.0909H41.4448V30.5341H41.4789L42.7857 29.0909H43.2459L42.0243 30.4034L43.2459 32H42.8198L41.8084 30.6477L41.4448 31.0568V32H41.0925ZM43.7019 32V29.0909H45.4576V29.4034H44.0542V30.3864H45.3667V30.6989H44.0542V31.6875H45.4803V32H43.7019ZM45.9334 29.4034V29.0909H48.1152V29.4034H47.2005V32H46.8482V29.4034H45.9334ZM49.0112 29.0909V32H48.6589V29.0909H49.0112ZM52.0243 29.0909V32H51.6834L50.0982 29.7159H50.0698V32H49.7175V29.0909H50.0584L51.6493 31.3807H51.6777V29.0909H52.0243ZM54.7179 30C54.6866 29.9044 54.6454 29.8187 54.5943 29.7429C54.5441 29.6662 54.484 29.6009 54.4139 29.5469C54.3448 29.4929 54.2662 29.4517 54.1781 29.4233C54.09 29.3949 53.9934 29.3807 53.8883 29.3807C53.716 29.3807 53.5592 29.4252 53.4181 29.5142C53.277 29.6032 53.1648 29.7344 53.0815 29.9077C52.9982 30.081 52.9565 30.2936 52.9565 30.5455C52.9565 30.7973 52.9986 31.0099 53.0829 31.1832C53.1672 31.3565 53.2813 31.4877 53.4252 31.5767C53.5692 31.6657 53.7311 31.7102 53.911 31.7102C54.0777 31.7102 54.2245 31.6747 54.3514 31.6037C54.4792 31.5317 54.5787 31.4304 54.6497 31.2997C54.7217 31.1681 54.7576 31.0133 54.7576 30.8352L54.8656 30.858H53.9906V30.5455H55.0985V30.858C55.0985 31.0975 55.0474 31.3059 54.9451 31.483C54.8438 31.66 54.7037 31.7973 54.5247 31.8949C54.3467 31.9915 54.1421 32.0398 53.911 32.0398C53.6535 32.0398 53.4271 31.9792 53.2321 31.858C53.0379 31.7367 52.8864 31.5644 52.7775 31.3409C52.6696 31.1174 52.6156 30.8523 52.6156 30.5455C52.6156 30.3153 52.6464 30.1084 52.7079 29.9247C52.7704 29.7401 52.8585 29.5829 52.9721 29.4531C53.0858 29.3234 53.2202 29.224 53.3755 29.1548C53.5308 29.0857 53.7018 29.0511 53.8883 29.0511C54.0417 29.0511 54.1847 29.0743 54.3173 29.1207C54.4508 29.1662 54.5697 29.2311 54.6738 29.3153C54.7789 29.3987 54.8665 29.4986 54.9366 29.6151C55.0067 29.7306 55.055 29.8589 55.0815 30H54.7179Z" fill="url(#paint6_linear_12_8)"/>
<defs>
<radialGradient id="paint0_radial_12_8" cx="0" cy="0" r="1" gradientUnits="userSpaceOnUse" gradientTransform="translate(35.7677 63.6162) scale(35.6858 4.27585)">
<stop/>
<stop offset="0.0248" stop-color="#131313"/>
<stop offset="0.0948" stop-color="#444444"/>
<stop offset="0.1703" stop-color="#717171"/>
<stop offset="0.2496" stop-color="#979797"/>
<stop offset="0.3339" stop-color="#B7B7B7"/>
<stop offset="0.4244" stop-color="#D2D2D2"/>
<stop offset="0.5235" stop-color="#E6E6E6"/>
<stop offset="0.6356" stop-color="#F4F4F4"/>
<stop offset="0.7719" stop-color="#FCFCFC"/>
<stop offset="1" stop-color="white"/>
</radialGradient>
<linearGradient id="paint1_linear_12_8" x1="54.4972" y1="14.0601" x2="-11.4384" y2="82.3999" gradientUnits="userSpaceOnUse">
<stop stop-color="white"/>
<stop offset="1"/>
</linearGradient>
<linearGradient id="paint2_linear_12_8" x1="58.3204" y1="11.0854" x2="18.8006" y2="51.5549" gradientUnits="userSpaceOnUse">
<stop stop-color="#3FFFD5"/>
<stop offset="0.4242" stop-color="#00A5BF"/>
<stop offset="0.9879" stop-color="#00225F"/>
</linearGradient>
<linearGradient id="paint3_linear_12_8" x1="18.8624" y1="1.21693" x2="40.241" y2="46.7804" gradientUnits="userSpaceOnUse">
<stop stop-color="#3FFFD5"/>
<stop offset="0.4242" stop-color="#00A5BF"/>
<stop offset="0.9879" stop-color="#00225F"/>
</linearGradient>
<linearGradient id="paint4_linear_12_8" x1="9.94744" y1="6.1963" x2="49.3389" y2="51.041" gradientUnits="userSpaceOnUse">
<stop stop-color="#3FFFD5"/>
<stop offset="0.4242" stop-color="#00A5BF"/>
<stop offset="0.9879" stop-color="#00225F"/>
</linearGradient>
<radialGradient id="paint5_radial_12_8" cx="0" cy="0" r="1" gradientUnits="userSpaceOnUse" gradientTransform="translate(23.3723 42.3394) rotate(0.859621) scale(113.879 102.311)">
<stop offset="0.2514" stop-color="white"/>
<stop offset="0.2671" stop-color="#F9F9F9"/>
<stop offset="0.2884" stop-color="#E8E8E8"/>
<stop offset="0.3127" stop-color="#CCCCCC"/>
<stop offset="0.3394" stop-color="#A4A4A4"/>
<stop offset="0.3679" stop-color="#727272"/>
<stop offset="0.3976" stop-color="#353535"/>
<stop offset="0.421"/>
</radialGradient>
<linearGradient id="paint6_linear_12_8" x1="34.5019" y1="23" x2="35.5433" y2="33.0985" gradientUnits="userSpaceOnUse">
<stop stop-color="#2EB7C0"/>
<stop offset="1" stop-color="#2C4A7A"/>
</linearGradient>
</defs>
</svg>
