<svg width="72" height="69" viewBox="0 0 72 69" fill="none" xmlns="http://www.w3.org/2000/svg">
<path opacity="0.25" d="M71.9977 63.7633C71.9977 66.1324 56.0273 68.0419 36.3277 68.0419C16.628 68.0419 0.657669 66.1236 0.657669 63.7633C0.657669 61.403 16.628 59.5024 36.3277 59.5024C56.0273 59.5024 71.9977 61.4119 71.9977 63.7633Z" fill="url(#paint0_radial_9_5)"/>
<path opacity="0.8" d="M4.38246 29.2158C3.84126 28.712 3.88063 27.9075 4.46119 27.3948L37.2284 0.335568C37.809 -0.150632 38.7044 -0.097592 39.2357 0.423968L69.3757 29.8612C69.8972 30.3474 69.8382 31.1695 69.2773 31.6557L36.5101 58.7326C35.9492 59.2188 35.0439 59.21 34.5027 58.6707L4.38246 29.2158Z" fill="url(#paint1_linear_9_5)"/>
<path opacity="0.8" d="M10.2471 28.9241C9.78462 28.491 9.82398 27.8014 10.3258 27.3683L38.114 4.41965C38.606 4.00417 39.3735 4.03953 39.8261 4.48153L65.4101 29.4634C65.8529 29.8788 65.8136 30.5772 65.3314 30.9927L37.5236 53.9678C37.0414 54.3745 36.2739 54.348 35.8114 53.906L10.2471 28.9241Z" fill="url(#paint2_linear_9_5)"/>
<path opacity="0.8" d="M29.563 54.3922C28.9431 54.6927 28.1658 54.4894 27.8312 53.9325L9.28279 22.0378C8.95807 21.4809 9.20406 20.7736 9.84366 20.4819L45.3267 3.82737C45.9565 3.51797 46.724 3.73013 47.0684 4.31357L65.5971 36.1995C65.9317 36.7564 65.6955 37.4636 65.0461 37.7641L29.563 54.3922Z" fill="url(#paint3_linear_9_5)"/>
<path opacity="0.8" d="M38.0943 50.6263C37.6909 51.0065 37.0218 50.9976 36.6183 50.6263L13.7698 29.6136C13.3565 29.2512 13.3566 28.6501 13.7895 28.2876L37.1595 7.77001C37.563 7.38989 38.2222 7.38989 38.6355 7.77001L61.484 28.7738C61.8776 29.154 61.8776 29.7286 61.4643 30.0998L38.0943 50.6263Z" fill="url(#paint4_linear_9_5)"/>
<path d="M38.4387 50.9446C38.0057 51.3158 37.3465 51.2893 36.943 50.9004L13.7993 29.6402C13.3762 29.26 13.3762 28.6589 13.7993 28.3053L37.4744 7.49597C37.8778 7.13353 38.5469 7.13353 38.9504 7.49597L62.1137 28.7915C62.5073 29.1628 62.5073 29.7639 62.0842 30.1264L38.4387 50.9446Z" fill="url(#paint5_radial_9_5)"/>
<path d="M33.4639 24.3636H33.9043V26.7713C33.9043 27.0199 33.8457 27.2418 33.7285 27.4371C33.6125 27.6313 33.4485 27.7846 33.2366 27.897C33.0248 28.0083 32.7762 28.0639 32.4909 28.0639C32.2056 28.0639 31.957 28.0083 31.7452 27.897C31.5333 27.7846 31.3687 27.6313 31.2516 27.4371C31.1355 27.2418 31.0775 27.0199 31.0775 26.7713V24.3636H31.5179V26.7358C31.5179 26.9134 31.557 27.0714 31.6351 27.2099C31.7132 27.3472 31.8245 27.4555 31.9689 27.5348C32.1145 27.6129 32.2885 27.652 32.4909 27.652C32.6933 27.652 32.8673 27.6129 33.0129 27.5348C33.1585 27.4555 33.2698 27.3472 33.3467 27.2099C33.4248 27.0714 33.4639 26.9134 33.4639 26.7358V24.3636ZM35.2239 24.3636V28H34.7836V24.3636H35.2239ZM37.3355 24.1932L36.1637 28.5469H35.7801L36.952 24.1932H37.3355ZM40.2754 24.3636H40.7158V26.7713C40.7158 27.0199 40.6572 27.2418 40.54 27.4371C40.424 27.6313 40.26 27.7846 40.0482 27.897C39.8363 28.0083 39.5877 28.0639 39.3024 28.0639C39.0171 28.0639 38.7686 28.0083 38.5567 27.897C38.3448 27.7846 38.1803 27.6313 38.0631 27.4371C37.9471 27.2418 37.8891 27.0199 37.8891 26.7713V24.3636H38.3294V26.7358C38.3294 26.9134 38.3685 27.0714 38.4466 27.2099C38.5247 27.3472 38.636 27.4555 38.7804 27.5348C38.926 27.6129 39.1 27.652 39.3024 27.652C39.5048 27.652 39.6788 27.6129 39.8244 27.5348C39.97 27.4555 40.0813 27.3472 40.1582 27.2099C40.2364 27.0714 40.2754 26.9134 40.2754 26.7358V24.3636ZM41.8082 24.3636L42.7457 25.8764H42.7741L43.7116 24.3636H44.2301L43.0866 26.1818L44.2301 28H43.7116L42.7741 26.5156H42.7457L41.8082 28H41.2897L42.4616 26.1818L41.2897 24.3636H41.8082ZM30.9253 34H29.8031V30.3636H30.975C31.3278 30.3636 31.6296 30.4364 31.8805 30.582C32.1315 30.7264 32.3238 30.9342 32.4576 31.2053C32.5914 31.4751 32.6582 31.7983 32.6582 32.1747C32.6582 32.5535 32.5908 32.8796 32.4558 33.1531C32.3209 33.4253 32.1244 33.6348 31.8663 33.7816C31.6083 33.9272 31.2946 34 30.9253 34ZM30.2435 33.6094H30.8969C31.1975 33.6094 31.4467 33.5514 31.6444 33.4354C31.8421 33.3194 31.9895 33.1542 32.0865 32.94C32.1836 32.7257 32.2321 32.4706 32.2321 32.1747C32.2321 31.8812 32.1842 31.6284 32.0883 31.4165C31.9924 31.2035 31.8492 31.0401 31.6586 30.9265C31.468 30.8117 31.2307 30.7543 30.9466 30.7543H30.2435V33.6094ZM34.4835 34.0568C34.2207 34.0568 33.9941 33.9988 33.8035 33.8828C33.6141 33.7656 33.4679 33.6023 33.3649 33.3928C33.2631 33.1821 33.2122 32.937 33.2122 32.6577C33.2122 32.3783 33.2631 32.1321 33.3649 31.919C33.4679 31.7048 33.6111 31.5379 33.7946 31.4183C33.9793 31.2976 34.1947 31.2372 34.4409 31.2372C34.583 31.2372 34.7232 31.2609 34.8617 31.3082C35.0002 31.3556 35.1263 31.4325 35.2399 31.5391C35.3536 31.6444 35.4441 31.7841 35.5116 31.9581C35.5791 32.1321 35.6128 32.3464 35.6128 32.6009V32.7784H33.5105V32.4162H35.1867C35.1867 32.2623 35.1559 32.125 35.0943 32.0043C35.034 31.8835 34.9475 31.7882 34.8351 31.7184C34.7238 31.6486 34.5924 31.6136 34.4409 31.6136C34.274 31.6136 34.1296 31.6551 34.0077 31.7379C33.8869 31.8196 33.794 31.9261 33.7289 32.0575C33.6638 32.1889 33.6313 32.3298 33.6313 32.4801V32.7216C33.6313 32.9276 33.6668 33.1022 33.7378 33.2454C33.81 33.3874 33.91 33.4957 34.0379 33.5703C34.1657 33.6437 34.3143 33.6804 34.4835 33.6804C34.5936 33.6804 34.693 33.665 34.7818 33.6342C34.8718 33.6023 34.9493 33.5549 35.0144 33.4922C35.0795 33.4283 35.1298 33.349 35.1653 33.2543L35.5702 33.3679C35.5276 33.5052 35.456 33.6259 35.3553 33.7301C35.2547 33.8331 35.1304 33.9136 34.9825 33.9716C34.8345 34.0284 34.6682 34.0568 34.4835 34.0568ZM38.182 31.8835L37.8056 31.9901C37.7819 31.9273 37.747 31.8664 37.7009 31.8072C37.6559 31.7468 37.5943 31.6971 37.5162 31.658C37.4381 31.619 37.3381 31.5994 37.2161 31.5994C37.0492 31.5994 36.9101 31.6379 36.7989 31.7148C36.6888 31.7906 36.6337 31.8871 36.6337 32.0043C36.6337 32.1084 36.6716 32.1907 36.7474 32.2511C36.8231 32.3114 36.9415 32.3617 37.1025 32.402L37.5073 32.5014C37.7512 32.5606 37.9329 32.6512 38.0524 32.7731C38.172 32.8938 38.2318 33.0495 38.2318 33.2401C38.2318 33.3963 38.1868 33.536 38.0968 33.6591C38.008 33.7822 37.8837 33.8793 37.7239 33.9503C37.5641 34.0213 37.3783 34.0568 37.1664 34.0568C36.8882 34.0568 36.658 33.9964 36.4757 33.8757C36.2934 33.755 36.178 33.5786 36.1295 33.3466L36.5272 33.2472C36.5651 33.3939 36.6367 33.504 36.7421 33.5774C36.8486 33.6508 36.9877 33.6875 37.1593 33.6875C37.3546 33.6875 37.5097 33.6461 37.6245 33.5632C37.7405 33.4792 37.7985 33.3786 37.7985 33.2614C37.7985 33.1667 37.7654 33.0874 37.6991 33.0234C37.6328 32.9583 37.531 32.9098 37.3937 32.8778L36.9391 32.7713C36.6894 32.7121 36.5059 32.6204 36.3887 32.4961C36.2727 32.3706 36.2147 32.2138 36.2147 32.0256C36.2147 31.8717 36.2579 31.7356 36.3443 31.6172C36.4319 31.4988 36.5509 31.4059 36.7012 31.3384C36.8527 31.271 37.0244 31.2372 37.2161 31.2372C37.486 31.2372 37.6979 31.2964 37.8518 31.4148C38.0069 31.5331 38.1169 31.6894 38.182 31.8835ZM38.8625 34V31.2727H39.2816V34H38.8625ZM39.0756 30.8182C38.9939 30.8182 38.9235 30.7904 38.8643 30.7347C38.8063 30.6791 38.7773 30.6122 38.7773 30.5341C38.7773 30.456 38.8063 30.3891 38.8643 30.3335C38.9235 30.2778 38.9939 30.25 39.0756 30.25C39.1573 30.25 39.2271 30.2778 39.2851 30.3335C39.3443 30.3891 39.3739 30.456 39.3739 30.5341C39.3739 30.6122 39.3443 30.6791 39.2851 30.7347C39.2271 30.7904 39.1573 30.8182 39.0756 30.8182ZM41.1499 35.0795C40.9475 35.0795 40.7735 35.0535 40.6279 35.0014C40.4823 34.9505 40.361 34.883 40.2639 34.799C40.168 34.7161 40.0917 34.6274 40.0348 34.5327L40.3687 34.2983C40.4065 34.348 40.4545 34.4048 40.5125 34.4688C40.5705 34.5339 40.6498 34.5901 40.7504 34.6374C40.8522 34.686 40.9854 34.7102 41.1499 34.7102C41.3701 34.7102 41.5518 34.657 41.695 34.5504C41.8382 34.4439 41.9098 34.277 41.9098 34.0497V33.4957H41.8743C41.8436 33.5455 41.7998 33.607 41.7429 33.6804C41.6873 33.7526 41.6068 33.8171 41.5015 33.8739C41.3973 33.9296 41.2564 33.9574 41.0789 33.9574C40.8587 33.9574 40.661 33.9053 40.4858 33.8011C40.3118 33.697 40.1739 33.5455 40.0721 33.3466C39.9715 33.1477 39.9212 32.9062 39.9212 32.6222C39.9212 32.3428 39.9703 32.0996 40.0686 31.8924C40.1668 31.6841 40.3035 31.5231 40.4787 31.4094C40.6539 31.2946 40.8563 31.2372 41.086 31.2372C41.2635 31.2372 41.4044 31.2668 41.5086 31.326C41.6139 31.384 41.6944 31.4503 41.75 31.5249C41.8069 31.5982 41.8507 31.6586 41.8814 31.706H41.9241V31.2727H42.3289V34.0781C42.3289 34.3125 42.2756 34.5031 42.1691 34.6499C42.0637 34.7978 41.9217 34.9061 41.7429 34.9748C41.5654 35.0446 41.3677 35.0795 41.1499 35.0795ZM41.1357 33.581C41.3038 33.581 41.4458 33.5425 41.5618 33.4656C41.6778 33.3886 41.766 33.2779 41.8264 33.1335C41.8868 32.9891 41.9169 32.8163 41.9169 32.6151C41.9169 32.4186 41.8874 32.2451 41.8282 32.0948C41.769 31.9445 41.6814 31.8267 41.5654 31.7415C41.4494 31.6562 41.3062 31.6136 41.1357 31.6136C40.9581 31.6136 40.8102 31.6586 40.6918 31.7486C40.5746 31.8385 40.4864 31.9593 40.4272 32.1108C40.3692 32.2623 40.3402 32.4304 40.3402 32.6151C40.3402 32.8045 40.3698 32.9719 40.429 33.1175C40.4894 33.262 40.5782 33.3756 40.6954 33.4585C40.8137 33.5401 40.9605 33.581 41.1357 33.581ZM43.515 32.3594V34H43.0959V31.2727H43.5008V31.6989H43.5363C43.6002 31.5604 43.6973 31.4491 43.8275 31.3651C43.9577 31.2798 44.1258 31.2372 44.3317 31.2372C44.5164 31.2372 44.678 31.2751 44.8165 31.3509C44.9549 31.4254 45.0627 31.5391 45.1396 31.6918C45.2165 31.8433 45.255 32.035 45.255 32.267V34H44.836V32.2955C44.836 32.0812 44.7803 31.9143 44.6691 31.7947C44.5578 31.674 44.4051 31.6136 44.211 31.6136C44.0772 31.6136 43.9577 31.6426 43.8523 31.7006C43.7482 31.7586 43.6659 31.8433 43.6055 31.9545C43.5451 32.0658 43.515 32.2008 43.515 32.3594Z" fill="url(#paint6_linear_9_5)"/>
<defs>
<radialGradient id="paint0_radial_9_5" cx="0" cy="0" r="1" gradientUnits="userSpaceOnUse" gradientTransform="translate(36.3287 63.7758) scale(35.6667 4.27356)">
<stop/>
<stop offset="0.0248" stop-color="#131313"/>
<stop offset="0.0948" stop-color="#444444"/>
<stop offset="0.1703" stop-color="#717171"/>
<stop offset="0.2496" stop-color="#979797"/>
<stop offset="0.3339" stop-color="#B7B7B7"/>
<stop offset="0.4244" stop-color="#D2D2D2"/>
<stop offset="0.5235" stop-color="#E6E6E6"/>
<stop offset="0.6356" stop-color="#F4F4F4"/>
<stop offset="0.7719" stop-color="#FCFCFC"/>
<stop offset="1" stop-color="white"/>
</radialGradient>
<linearGradient id="paint1_linear_9_5" x1="55.6036" y1="13.8572" x2="-10.3276" y2="82.1921" gradientUnits="userSpaceOnUse">
<stop stop-color="white"/>
<stop offset="1"/>
</linearGradient>
<linearGradient id="paint2_linear_9_5" x1="60.3764" y1="10.5499" x2="20.8565" y2="51.0194" gradientUnits="userSpaceOnUse">
<stop stop-color="white"/>
<stop offset="0.4242" stop-color="#FF9CFF"/>
<stop offset="0.9879" stop-color="#6D17FF"/>
</linearGradient>
<linearGradient id="paint3_linear_9_5" x1="20.9149" y1="0.671246" x2="42.2966" y2="46.2412" gradientUnits="userSpaceOnUse">
<stop stop-color="white"/>
<stop offset="0.4242" stop-color="#FF9CFF"/>
<stop offset="0.9879" stop-color="#6D17FF"/>
</linearGradient>
<linearGradient id="paint4_linear_9_5" x1="12.0016" y1="5.64716" x2="51.3961" y2="50.4954" gradientUnits="userSpaceOnUse">
<stop stop-color="white"/>
<stop offset="0.4242" stop-color="#FF9CFF"/>
<stop offset="0.9879" stop-color="#6D17FF"/>
</linearGradient>
<radialGradient id="paint5_radial_9_5" cx="0" cy="0" r="1" gradientUnits="userSpaceOnUse" gradientTransform="translate(25.6623 41.5695) rotate(0.859621) scale(111.747 100.396)">
<stop offset="0.2514" stop-color="white"/>
<stop offset="0.2671" stop-color="#F9F9F9"/>
<stop offset="0.2884" stop-color="#E8E8E8"/>
<stop offset="0.3127" stop-color="#CCCCCC"/>
<stop offset="0.3394" stop-color="#A4A4A4"/>
<stop offset="0.3679" stop-color="#727272"/>
<stop offset="0.3976" stop-color="#353535"/>
<stop offset="0.421"/>
</radialGradient>
<linearGradient id="paint6_linear_9_5" x1="36.648" y1="23" x2="38.3868" y2="34.995" gradientUnits="userSpaceOnUse">
<stop stop-color="#F3B8F3"/>
<stop offset="1" stop-color="#8C3EFC"/>
</linearGradient>
</defs>
</svg>
