<svg width="72" height="69" viewBox="0 0 72 69" fill="none" xmlns="http://www.w3.org/2000/svg">
<path opacity="0.25" d="M71.3423 63.938C71.3423 66.3071 55.372 68.2077 35.6723 68.2077C15.9726 68.2077 0.00231934 66.2982 0.00231934 63.938C0.00231934 61.5777 15.9726 59.6682 35.6723 59.6682C55.372 59.6594 71.3423 61.5777 71.3423 63.938Z" fill="url(#paint0_radial_12_7)"/>
<path opacity="0.8" d="M3.18064 30.0454C2.63944 29.5415 2.68864 28.7371 3.25936 28.2244L36.0167 1.17396C36.5973 0.687757 37.5026 0.731957 38.0339 1.26236L68.1738 30.6996C68.6954 31.1946 68.6363 32.0167 68.0754 32.5029L35.3082 59.571C34.7572 60.0395 33.8421 60.0307 33.3107 59.5003L3.18064 30.0454Z" fill="url(#paint1_linear_12_7)"/>
<path opacity="0.8" d="M7.98256 29.515C7.52992 29.0818 7.56928 28.41 8.06128 27.9768L35.8593 5.01052C36.3414 4.60388 37.1188 4.63924 37.5616 5.0724L63.1456 30.0631C63.5884 30.4697 63.5392 31.1769 63.057 31.5836L35.2492 54.5676C34.7867 54.9654 34.0094 54.9565 33.5567 54.4968L7.98256 29.515Z" fill="url(#paint2_linear_12_7)"/>
<path opacity="0.8" d="M27.2985 54.983C26.6786 55.2924 25.911 55.0891 25.5666 54.5145L7.02808 22.6198C6.69352 22.0629 6.94936 21.3557 7.57912 21.0728L43.072 4.40056C43.7018 4.1 44.4594 4.31216 44.8038 4.8956L63.3326 36.7726C63.677 37.3384 63.4211 38.0456 62.7914 38.3462L27.2985 54.983Z" fill="url(#paint3_linear_12_7)"/>
<path opacity="0.8" d="M35.8298 51.2172C35.4165 51.5885 34.767 51.5796 34.3538 51.2172L11.4954 30.1957C11.092 29.8332 11.092 29.2321 11.525 28.8785L34.8851 8.3432C35.2984 7.97192 35.9577 7.97192 36.371 8.3432L59.2293 29.347C59.6229 29.7183 59.6229 30.3018 59.2194 30.673L35.8298 51.2172Z" fill="url(#paint4_linear_12_7)"/>
<path d="M36.1643 51.1023C35.751 51.4824 35.0918 51.447 34.6982 51.0669L11.9973 30.2134C11.584 29.8332 11.584 29.2586 11.9973 28.9139L35.2295 8.49348C35.633 8.13988 36.2824 8.13988 36.6858 8.50231L59.4064 29.3736C59.7902 29.7448 59.7902 30.3548 59.3867 30.6907L36.1643 51.1023Z" fill="url(#paint5_radial_12_7)"/>
<path d="M31.9237 28L31.1282 25.0909H31.4862L32.0941 27.4602H32.1225L32.7418 25.0909H33.1396L33.7589 27.4602H33.7873L34.3952 25.0909H34.7532L33.9577 28H33.5941L32.9521 25.6818H32.9293L32.2873 28H31.9237ZM35.1921 28V25.0909H36.9478V25.4034H35.5444V26.3864H36.8569V26.6989H35.5444V27.6875H36.9705V28H35.1921ZM37.5827 28V25.0909H38.5998C38.8024 25.0909 38.9696 25.1259 39.1012 25.196C39.2328 25.2652 39.3308 25.3584 39.3952 25.4759C39.4596 25.5923 39.4918 25.7216 39.4918 25.8636C39.4918 25.9886 39.4696 26.0919 39.4251 26.1733C39.3815 26.2547 39.3237 26.3191 39.2518 26.3665C39.1808 26.4138 39.1036 26.4489 39.0202 26.4716V26.5C39.1093 26.5057 39.1987 26.5369 39.2887 26.5938C39.3787 26.6506 39.454 26.732 39.5146 26.8381C39.5752 26.9441 39.6055 27.0739 39.6055 27.2273C39.6055 27.3731 39.5723 27.5043 39.506 27.6207C39.4397 27.7372 39.3351 27.8295 39.1921 27.8977C39.0491 27.9659 38.863 28 38.6339 28H37.5827ZM37.935 27.6875H38.6339C38.864 27.6875 39.0273 27.643 39.1239 27.554C39.2215 27.464 39.2702 27.3551 39.2702 27.2273C39.2702 27.1288 39.2451 27.0379 39.195 26.9545C39.1448 26.8703 39.0733 26.803 38.9805 26.7528C38.8877 26.7017 38.7778 26.6761 38.6509 26.6761H37.935V27.6875ZM37.935 26.3693H38.5884C38.6945 26.3693 38.7901 26.3485 38.8754 26.3068C38.9615 26.2652 39.0297 26.2064 39.0799 26.1307C39.131 26.0549 39.1566 25.9659 39.1566 25.8636C39.1566 25.7358 39.1121 25.6274 39.0231 25.5384C38.9341 25.4484 38.793 25.4034 38.5998 25.4034H37.935V26.3693ZM22.4453 33H21.5476V30.0909H22.4851C22.7673 30.0909 23.0088 30.1491 23.2095 30.2656C23.4103 30.3812 23.5642 30.5473 23.6712 30.7642C23.7782 30.9801 23.8317 31.2386 23.8317 31.5398C23.8317 31.8428 23.7777 32.1037 23.6697 32.3224C23.5618 32.5402 23.4046 32.7079 23.1982 32.8253C22.9917 32.9418 22.7408 33 22.4453 33ZM21.8999 32.6875H22.4226C22.6631 32.6875 22.8625 32.6411 23.0206 32.5483C23.1787 32.4555 23.2966 32.3234 23.3743 32.152C23.4519 31.9806 23.4908 31.7765 23.4908 31.5398C23.4908 31.3049 23.4524 31.1027 23.3757 30.9332C23.299 30.7628 23.1844 30.6321 23.032 30.5412C22.8795 30.4493 22.6896 30.4034 22.4624 30.4034H21.8999V32.6875ZM24.4226 33V30.0909H26.1783V30.4034H24.7749V31.3864H26.0874V31.6989H24.7749V32.6875H26.201V33H24.4226ZM26.9325 30.0909L27.7962 32.5398H27.8303L28.6939 30.0909H29.0632L27.995 33H27.6314L26.5632 30.0909H26.9325ZM29.5163 33V30.0909H31.272V30.4034H29.8686V31.3864H31.1811V31.6989H29.8686V32.6875H31.2947V33H29.5163ZM31.907 33V30.0909H32.2592V32.6875H33.6115V33H31.907ZM36.4982 31.5455C36.4982 31.8523 36.4428 32.1174 36.332 32.3409C36.2212 32.5644 36.0692 32.7367 35.8761 32.858C35.6829 32.9792 35.4622 33.0398 35.2141 33.0398C34.966 33.0398 34.7454 32.9792 34.5522 32.858C34.359 32.7367 34.207 32.5644 34.0962 32.3409C33.9854 32.1174 33.93 31.8523 33.93 31.5455C33.93 31.2386 33.9854 30.9735 34.0962 30.75C34.207 30.5265 34.359 30.3542 34.5522 30.233C34.7454 30.1117 34.966 30.0511 35.2141 30.0511C35.4622 30.0511 35.6829 30.1117 35.8761 30.233C36.0692 30.3542 36.2212 30.5265 36.332 30.75C36.4428 30.9735 36.4982 31.2386 36.4982 31.5455ZM36.1573 31.5455C36.1573 31.2936 36.1152 31.081 36.0309 30.9077C35.9476 30.7344 35.8344 30.6032 35.6914 30.5142C35.5494 30.4252 35.3903 30.3807 35.2141 30.3807C35.038 30.3807 34.8784 30.4252 34.7354 30.5142C34.5934 30.6032 34.4802 30.7344 34.396 30.9077C34.3126 31.081 34.271 31.2936 34.271 31.5455C34.271 31.7973 34.3126 32.0099 34.396 32.1832C34.4802 32.3565 34.5934 32.4877 34.7354 32.5767C34.8784 32.6657 35.038 32.7102 35.2141 32.7102C35.3903 32.7102 35.5494 32.6657 35.6914 32.5767C35.8344 32.4877 35.9476 32.3565 36.0309 32.1832C36.1152 32.0099 36.1573 31.7973 36.1573 31.5455ZM37.0906 33V30.0909H38.0735C38.3017 30.0909 38.4883 30.1321 38.6332 30.2145C38.779 30.2959 38.887 30.4062 38.957 30.5455C39.0271 30.6847 39.0621 30.84 39.0621 31.0114C39.0621 31.1828 39.0271 31.3385 38.957 31.4787C38.8879 31.6188 38.7809 31.7306 38.636 31.8139C38.4911 31.8963 38.3055 31.9375 38.0792 31.9375H37.3746V31.625H38.0678C38.2241 31.625 38.3496 31.598 38.4442 31.544C38.5389 31.4901 38.6076 31.4171 38.6502 31.3253C38.6938 31.2325 38.7156 31.1278 38.7156 31.0114C38.7156 30.8949 38.6938 30.7907 38.6502 30.6989C38.6076 30.607 38.5385 30.535 38.4428 30.483C38.3472 30.4299 38.2203 30.4034 38.0621 30.4034H37.4428V33H37.0906ZM39.6296 30.0909H40.0501L41.0387 32.5057H41.0728L42.0614 30.0909H42.4819V33H42.1523V30.7898H42.1239L41.2148 33H40.8967L39.9876 30.7898H39.9592V33H39.6296V30.0909ZM43.1882 33V30.0909H44.9439V30.4034H43.5405V31.3864H44.853V31.6989H43.5405V32.6875H44.9666V33H43.1882ZM47.8857 30.0909V33H47.5447L45.9595 30.7159H45.9311V33H45.5788V30.0909H45.9197L47.5107 32.3807H47.5391V30.0909H47.8857ZM48.4315 30.4034V30.0909H50.6133V30.4034H49.6985V33H49.3462V30.4034H48.4315Z" fill="url(#paint6_linear_12_7)"/>
<defs>
<radialGradient id="paint0_radial_12_7" cx="0" cy="0" r="1" gradientUnits="userSpaceOnUse" gradientTransform="translate(35.6707 63.934) scale(35.6667 4.27356)">
<stop/>
<stop offset="0.0248" stop-color="#131313"/>
<stop offset="0.0948" stop-color="#444444"/>
<stop offset="0.1703" stop-color="#717171"/>
<stop offset="0.2496" stop-color="#979797"/>
<stop offset="0.3339" stop-color="#B7B7B7"/>
<stop offset="0.4244" stop-color="#D2D2D2"/>
<stop offset="0.5235" stop-color="#E6E6E6"/>
<stop offset="0.6356" stop-color="#F4F4F4"/>
<stop offset="0.7719" stop-color="#FCFCFC"/>
<stop offset="1" stop-color="white"/>
</radialGradient>
<linearGradient id="paint1_linear_12_7" x1="54.4008" y1="14.6894" x2="-11.5251" y2="83.0185" gradientUnits="userSpaceOnUse">
<stop stop-color="white"/>
<stop offset="1"/>
</linearGradient>
<linearGradient id="paint2_linear_12_7" x1="58.1155" y1="11.1396" x2="18.5989" y2="51.6058" gradientUnits="userSpaceOnUse">
<stop stop-color="#F6FF3F"/>
<stop offset="0.4242" stop-color="#72BF00"/>
<stop offset="0.9879" stop-color="#095F00"/>
</linearGradient>
<linearGradient id="paint3_linear_12_7" x1="18.6469" y1="1.25306" x2="40.0348" y2="46.8361" gradientUnits="userSpaceOnUse">
<stop stop-color="#F6FF3F"/>
<stop offset="0.4242" stop-color="#72BF00"/>
<stop offset="0.9879" stop-color="#095F00"/>
</linearGradient>
<linearGradient id="paint4_linear_12_7" x1="9.73248" y1="6.2375" x2="49.1307" y2="51.0899" gradientUnits="userSpaceOnUse">
<stop stop-color="#F6FF3F"/>
<stop offset="0.4242" stop-color="#72BF00"/>
<stop offset="0.9879" stop-color="#095F00"/>
</linearGradient>
<radialGradient id="paint5_radial_12_7" cx="0" cy="0" r="1" gradientUnits="userSpaceOnUse" gradientTransform="translate(23.6321 41.9222) rotate(0.859621) scale(109.623 98.4877)">
<stop offset="0.2514" stop-color="white"/>
<stop offset="0.2671" stop-color="#F9F9F9"/>
<stop offset="0.2884" stop-color="#E8E8E8"/>
<stop offset="0.3127" stop-color="#CCCCCC"/>
<stop offset="0.3394" stop-color="#A4A4A4"/>
<stop offset="0.3679" stop-color="#727272"/>
<stop offset="0.3976" stop-color="#353535"/>
<stop offset="0.421"/>
</radialGradient>
<linearGradient id="paint6_linear_12_7" x1="35.2697" y1="24" x2="36.4163" y2="33.0398" gradientUnits="userSpaceOnUse">
<stop stop-color="#A4D71F"/>
<stop offset="0.510033" stop-color="#61A314"/>
<stop offset="1" stop-color="#207109"/>
</linearGradient>
</defs>
</svg>
